<svg width="60" height="60" viewBox="0 0 60 60" fill="none" xmlns="http://www.w3.org/2000/svg">
<path d="M22.7543 55.0001C22.5084 55.0001 22.3444 54.8361 22.3444 54.5902L20.7871 36.3935L15.6231 38.6066C13.492 39.5083 12.1805 41.5575 12.1805 43.8525V54.5902C12.1805 54.8361 12.0166 55.0001 11.7707 55.0001C11.5248 55.0001 11.3608 54.8361 11.3608 54.5902V43.8525C11.3608 41.2296 12.9182 38.8525 15.2953 37.787L21.033 35.328C21.1149 35.246 21.2789 35.246 21.4428 35.328C21.5248 35.4099 21.6067 35.4919 21.6067 35.6558L23.2461 54.4263C23.1641 54.7542 23.0002 54.9181 22.7543 55.0001C22.7543 55.0001 22.7543 54.9181 22.7543 55.0001Z" fill="#424A52"/>
<path d="M34.6398 50.9014C34.3939 50.9014 34.23 50.7374 34.23 50.4915V48.0325C34.23 47.7866 34.3939 47.6227 34.6398 47.6227C34.8857 47.6227 35.0497 47.7866 35.0497 48.0325V50.4915C35.0497 50.6555 34.8038 50.9014 34.6398 50.9014Z" fill="#424A52"/>
<path d="M26.4427 34.5081C22.1804 34.5081 18.4919 31.6392 17.3444 27.5409C16.0329 27.4589 14.9673 26.3933 14.9673 25.0819C14.9673 23.7704 16.0329 22.7048 17.3444 22.6228C18.4099 18.5245 22.1804 15.6556 26.4427 15.6556C30.705 15.6556 34.3935 18.5245 35.541 22.6228C36.8525 22.7048 37.9181 23.7704 37.9181 25.0819C37.9181 26.3933 36.8525 27.4589 35.541 27.5409C34.3935 31.6392 30.705 34.5081 26.4427 34.5081ZM17.5902 26.6392C17.7542 26.6392 18.0001 26.7212 18.0821 26.9671C18.9837 30.9015 22.4263 33.6064 26.4427 33.6064C30.4591 33.6064 33.9017 30.9015 34.8033 26.9671C34.8853 26.8032 35.0492 26.6392 35.2132 26.6392C35.2951 26.6392 35.3771 26.6392 35.3771 26.6392C36.2788 26.6392 37.0165 25.9015 37.0165 24.9999C37.0165 24.0983 36.2788 23.3605 35.3771 23.3605H35.2951C35.0492 23.3605 34.8033 23.2786 34.8033 23.0327C33.9017 19.0983 30.4591 16.3933 26.4427 16.3933C22.4263 16.3933 18.9837 19.0983 18.0821 23.0327C18.0001 23.1966 17.8361 23.3605 17.6722 23.3605C17.5902 23.3605 17.5083 23.3605 17.5083 23.3605C16.6066 23.3605 15.8689 24.0983 15.8689 24.9999C15.8689 25.9015 16.6066 26.6392 17.5083 26.6392C17.4263 26.7212 17.5083 26.6392 17.5902 26.6392C17.5083 26.6392 17.5083 26.6392 17.5902 26.6392Z" fill="#424A52"/>
<path d="M18.2458 24.1803H17.8359V18.8524H20.295V22.1311C20.295 23.2786 19.3113 24.1803 18.2458 24.1803Z" fill="#C9C9C4"/>
<path d="M18.2459 24.6722H17.8361C17.5902 24.6722 17.4263 24.5083 17.4263 24.2624V18.9345C17.4263 18.6886 17.5902 18.5247 17.8361 18.5247H20.2951C20.541 18.5247 20.705 18.6886 20.705 18.9345V22.2132C20.705 23.5247 19.5574 24.6722 18.2459 24.6722ZM18.2459 19.3443V23.8525C19.1476 23.8525 19.8853 23.1148 19.8853 22.2132V19.3443H18.2459Z" fill="#424A52"/>
<path d="M32.5898 18.8524V22.2131C32.5898 23.3606 33.4915 24.2623 34.639 24.2623H35.0489V17.7869C34.3931 18.3606 33.4915 18.7705 32.5898 18.8524Z" fill="#C9C9C4"/>
<path d="M35.049 24.6722H34.6392C33.2457 24.6722 32.1802 23.6066 32.1802 22.2132V18.8525C32.1802 18.6066 32.3441 18.4427 32.5081 18.4427C33.3277 18.3607 34.1474 18.0328 34.7212 17.4591C34.8031 17.3771 35.049 17.2951 35.131 17.3771C35.2949 17.4591 35.3769 17.623 35.3769 17.7869V24.2623C35.4589 24.4263 35.213 24.6722 35.049 24.6722ZM32.9998 19.1804V22.1312C32.9998 23.0328 33.7376 23.7705 34.6392 23.7705V18.5246C34.1474 18.8525 33.5736 19.0984 32.9998 19.1804Z" fill="#424A52"/>
<path d="M26.4432 29.5081C25.2957 29.5081 24.1481 29.0982 23.2465 28.1966C23.0826 28.0327 23.0826 27.7868 23.2465 27.6228C23.4104 27.4589 23.6563 27.4589 23.8203 27.6228C25.2957 29.0982 27.5907 29.0982 29.0662 27.6228C29.2301 27.4589 29.476 27.4589 29.6399 27.6228C29.8039 27.7868 29.8039 28.0327 29.6399 28.1966C28.7383 29.0982 27.5907 29.5081 26.4432 29.5081Z" fill="#424A52"/>
<path d="M32.1802 18.8525H17.8359C17.8359 15.4919 20.6228 12.705 23.9835 12.705H28.2458C30.049 12.705 31.7703 12.2951 33.4097 11.5574L36.2785 10.246V14.7542C36.2785 17.0492 34.3933 18.8525 32.1802 18.8525Z" fill="#C9C9C4"/>
<path d="M32.1803 19.3442H17.8361C17.5902 19.3442 17.4263 19.1803 17.4263 18.9344C17.4263 15.3278 20.3771 12.377 23.9836 12.377H28.2459C29.9672 12.377 31.6886 11.9672 33.2459 11.3114L36.1148 9.99995C36.2787 9.91798 36.3607 9.91798 36.5246 9.99995C36.6066 10.0819 36.6885 10.2459 36.6885 10.3278V14.836C36.6885 17.295 34.6394 19.3442 32.1803 19.3442ZM18.2459 18.5245H32.1803C34.2295 18.5245 35.8689 16.8852 35.8689 14.836V10.9016L33.5738 11.9672C31.9345 12.7049 30.0492 13.1147 28.2459 13.1147H23.9836C20.9509 13.1967 18.4099 15.4917 18.2459 18.5245Z" fill="#424A52"/>
<path d="M28.4919 52.1311L26.4427 54.5081L24.3936 52.1311L25.6231 39.754H27.2624L28.4919 52.1311Z" fill="#E60D2E"/>
<path d="M26.4424 55C26.3604 55 26.1965 54.918 26.1145 54.836L24.0654 52.459C23.9834 52.377 23.9834 52.295 23.9834 52.1311L25.2129 39.7541C25.2129 39.5082 25.3768 39.3442 25.6227 39.3442H27.2621C27.508 39.3442 27.6719 39.5082 27.6719 39.7541L28.9014 52.1311C28.9014 52.2131 28.9014 52.377 28.8195 52.459L26.7703 54.836C26.6064 54.918 26.5244 55 26.4424 55ZM24.8031 52.0491L26.4424 53.9344L28.0818 52.0491L26.9342 40.2459H26.0326L24.8031 52.0491Z" fill="#424A52"/>
<path d="M18.2458 55C17.9999 55 17.8359 54.8361 17.8359 54.5902V46.3935C17.8359 46.1476 17.9999 45.9836 18.2458 45.9836C18.4917 45.9836 18.6556 46.1476 18.6556 46.3935V54.5902C18.6556 54.7541 18.4097 55 18.2458 55Z" fill="#424A52"/>
<path d="M34.6398 54.9999C34.3939 54.9999 34.23 54.836 34.23 54.5901V45.9835C34.23 45.8196 34.312 45.7376 34.3939 45.6556C34.4759 45.5737 34.6398 45.5737 34.8038 45.6556L40.5415 48.1147C41.689 48.6065 43.0005 48.5245 44.066 47.7868C45.1316 47.1311 45.7054 45.9835 45.7054 44.672V36.9671H39.9677V41.8852C39.9677 42.1311 39.8037 42.295 39.5578 42.295C39.3119 42.295 39.148 42.1311 39.148 41.8852V36.5573C39.148 36.3114 39.3119 36.1475 39.5578 36.1475H46.1152C46.3611 36.1475 46.525 36.3114 46.525 36.5573V44.672C46.525 46.2294 45.7873 47.6229 44.4759 48.4425C43.2464 49.2622 41.607 49.4261 40.2136 48.8524L35.0497 46.6392V54.5901C35.0497 54.754 34.8038 54.9999 34.6398 54.9999Z" fill="#424A52"/>
<path d="M21.4428 40.2459C21.3608 40.2459 21.3608 40.2459 21.2789 40.2459C21.1149 40.1639 21.033 40.0819 21.033 39.918L20.7051 35.9016C20.7051 35.7377 20.7871 35.5737 20.951 35.4918L23.0002 34.5901C23.1641 34.5082 23.41 34.5901 23.492 34.7541L25.1313 37.2131C25.2133 37.377 25.2133 37.6229 25.0493 37.7869L21.6887 40.2459C21.6067 40.1639 21.5248 40.2459 21.4428 40.2459ZM21.5247 35.9836L21.7707 39.0164L24.2297 37.2131L23.0002 35.3278L21.5247 35.9836Z" fill="#424A52"/>
<path d="M31.3609 40.2459C31.2789 40.2459 31.197 40.2459 31.115 40.164L27.7543 37.7049C27.5904 37.541 27.5084 37.2951 27.6724 37.1312L29.3117 34.6722C29.3937 34.5082 29.6396 34.4263 29.8035 34.5082L31.8527 35.4099C32.0166 35.4918 32.0986 35.6558 32.0986 35.8197L31.7707 39.8361C31.7707 40 31.6888 40.082 31.5248 40.164C31.5248 40.164 31.4429 40.2459 31.3609 40.2459ZM28.574 37.2131L31.033 39.0164L31.2789 35.9836L29.8035 35.3279L28.574 37.2131Z" fill="#424A52"/>
<path d="M27.2624 40.2458H25.6231C24.9673 40.2458 24.3936 39.6721 24.3936 39.0163V38.1967C24.3936 37.5409 24.9673 36.9672 25.6231 36.9672H27.2624C27.9181 36.9672 28.4919 37.5409 28.4919 38.1967V39.0163C28.4919 39.6721 27.9181 40.2458 27.2624 40.2458ZM25.6231 37.7868C25.3772 37.7868 25.2132 37.9508 25.2132 38.1967V39.0163C25.2132 39.2622 25.3772 39.4262 25.6231 39.4262H27.2624C27.5083 39.4262 27.6722 39.2622 27.6722 39.0163V38.1967C27.6722 37.9508 27.5083 37.7868 27.2624 37.7868H25.6231Z" fill="#424A52"/>
<path d="M27.8363 38.0326C27.7543 38.0326 27.5904 37.9506 27.5084 37.8687C27.4264 37.7867 27.3445 37.7047 27.1806 37.7047H25.5412C25.3773 37.7047 25.2953 37.7867 25.2133 37.8687C25.1314 37.9506 24.9674 38.0326 24.8855 38.0326C24.7215 38.0326 24.6396 37.9506 24.5576 37.8687L22.7543 35.0818C22.6723 34.9998 22.6724 34.9179 22.6724 34.8359V33.4424C22.6724 33.2785 22.7543 33.1965 22.8363 33.1146C22.9182 33.0326 23.0822 33.0326 23.2461 33.0326C25.2953 33.8523 27.5084 33.8523 29.4756 33.0326C29.6396 32.9506 29.7215 33.0326 29.8855 33.1146C29.9674 33.1965 30.0494 33.2785 30.0494 33.4424V34.9179C30.0494 34.9998 30.0494 35.0818 29.9674 35.1638L28.1641 37.9506C28.0822 37.9506 28.0002 38.0326 27.8363 38.0326ZM25.6232 36.967H27.2625C27.4264 36.967 27.5904 37.049 27.7543 37.049L29.3117 34.7539V34.0162C27.4264 34.59 25.4592 34.59 23.574 34.0162V34.7539L25.1314 37.049C25.2133 36.967 25.3773 36.967 25.6232 36.967Z" fill="#424A52"/>
<path d="M17.0164 34.0984H10.8688C10.6229 34.0984 10.459 33.9344 10.459 33.6885C10.459 33.4426 10.6229 33.2787 10.8688 33.2787H17.0164C17.2623 33.2787 17.4262 33.4426 17.4262 33.6885C17.4262 33.9344 17.1803 34.0984 17.0164 34.0984Z" fill="#424A52"/>
<path d="M9.22951 34.0984H8.40984C8.16393 34.0984 8 33.9344 8 33.6885C8 33.4426 8.16393 33.2787 8.40984 33.2787H9.22951C9.47541 33.2787 9.63934 33.4426 9.63934 33.6885C9.63934 33.9344 9.39344 34.0984 9.22951 34.0984Z" fill="#424A52"/>
<path d="M49.3933 52.5409H43.2458C42.9999 52.5409 42.8359 52.3769 42.8359 52.131C42.8359 51.8851 42.9999 51.7212 43.2458 51.7212H49.3933C49.6392 51.7212 49.8031 51.8851 49.8031 52.131C49.8031 52.3769 49.5572 52.5409 49.3933 52.5409Z" fill="#424A52"/>
<path d="M51.8521 52.5409H51.0324C50.7865 52.5409 50.6226 52.3769 50.6226 52.131C50.6226 51.8851 50.7865 51.7212 51.0324 51.7212H51.8521C52.098 51.7212 52.2619 51.8851 52.2619 52.131C52.2619 52.3769 52.016 52.5409 51.8521 52.5409Z" fill="#424A52"/>
<path d="M39.9675 32.2131H38.3281C37.6724 32.2131 37.0986 31.6393 37.0986 30.9836V30.5737C37.0986 29.918 37.6724 29.3442 38.3281 29.3442H39.9675C40.6232 29.3442 41.197 29.918 41.197 30.5737V30.9836C41.197 31.6393 40.6232 32.2131 39.9675 32.2131ZM38.3281 30.1639C38.0822 30.1639 37.9183 30.3278 37.9183 30.5737V30.9836C37.9183 31.2295 38.0822 31.3934 38.3281 31.3934H39.9675C40.2134 31.3934 40.3773 31.2295 40.3773 30.9836V30.5737C40.3773 30.3278 40.2134 30.1639 39.9675 30.1639H38.3281Z" fill="#424A52"/>
<path d="M46.1144 31.2295H45.7046C45.0489 31.2295 44.4751 30.6558 44.4751 30V27.541C44.4751 26.8853 45.0489 26.3115 45.7046 26.3115H46.1144C46.7702 26.3115 47.3439 26.8853 47.3439 27.541V30C47.3439 30.6558 46.7702 31.2295 46.1144 31.2295ZM45.7046 27.1312C45.4587 27.1312 45.2948 27.2951 45.2948 27.541V30C45.2948 30.2459 45.4587 30.4099 45.7046 30.4099H46.1144C46.3603 30.4099 46.5243 30.2459 46.5243 30V27.541C46.5243 27.2951 46.3603 27.1312 46.1144 27.1312H45.7046Z" fill="#424A52"/>
<path d="M44.0656 31.2295H43.6558C43 31.2295 42.4263 30.6558 42.4263 30V27.541C42.4263 26.8853 43 26.3115 43.6558 26.3115H44.0656C44.7213 26.3115 45.2951 26.8853 45.2951 27.541V30C45.2951 30.6558 44.7213 31.2295 44.0656 31.2295ZM43.6558 27.1312C43.4099 27.1312 43.2459 27.2951 43.2459 27.541V30C43.2459 30.2459 43.4099 30.4099 43.6558 30.4099H44.0656C44.3115 30.4099 44.4754 30.2459 44.4754 30V27.541C44.4754 27.2951 44.3115 27.1312 44.0656 27.1312H43.6558Z" fill="#424A52"/>
<path d="M42.0163 31.2295H41.6065C40.9507 31.2295 40.377 30.6558 40.377 30V27.541C40.377 26.8853 40.9507 26.3115 41.6065 26.3115H42.0163C42.672 26.3115 43.2458 26.8853 43.2458 27.541V30C43.2458 30.6558 42.672 31.2295 42.0163 31.2295ZM41.6065 27.1312C41.3606 27.1312 41.1966 27.2951 41.1966 27.541V30C41.1966 30.2459 41.3606 30.4099 41.6065 30.4099H42.0163C42.2622 30.4099 42.4261 30.2459 42.4261 30V27.541C42.4261 27.2951 42.2622 27.1312 42.0163 27.1312H41.6065Z" fill="#424A52"/>
<path d="M44.8849 35.3278C44.639 35.3278 44.4751 35.1639 44.4751 34.918C44.4751 34.6721 44.639 34.5081 44.8849 34.5081C45.7866 34.5081 46.5243 33.7704 46.5243 32.8688V30.8196C46.5243 30.5737 46.6882 30.4098 46.9341 30.4098C47.18 30.4098 47.3439 30.5737 47.3439 30.8196V32.8688C47.3439 34.1803 46.1964 35.3278 44.8849 35.3278Z" fill="#424A52"/>
<path d="M40.7866 35.3277C39.3932 35.3277 38.3276 34.2622 38.3276 32.8687V31.8031C38.3276 31.5572 38.4916 31.3933 38.7375 31.3933C38.9834 31.3933 39.1473 31.5572 39.1473 31.8031V32.8687C39.1473 33.7704 39.885 34.5081 40.7866 34.5081C41.0326 34.5081 41.1965 34.672 41.1965 34.9179C41.1965 35.1638 40.9506 35.3277 40.7866 35.3277Z" fill="#424A52"/>
<path d="M40.7866 31.2295C40.5407 31.2295 40.3768 31.0656 40.3768 30.8197V23.4426C40.3768 23.1967 40.2129 23.0328 39.967 23.0328H39.5571C39.3112 23.0328 39.1473 23.1967 39.1473 23.4426V29.8361C39.1473 30.082 38.9834 30.2459 38.7375 30.2459C38.4916 30.2459 38.3276 30.082 38.3276 29.8361V23.4426C38.3276 22.7869 38.9014 22.2131 39.5571 22.2131H39.967C40.6227 22.2131 41.1965 22.7869 41.1965 23.4426V30.8197C41.1965 30.9836 40.9506 31.2295 40.7866 31.2295Z" fill="#424A52"/>
<path d="M30.131 54.9999C30.0491 54.918 30.131 54.9999 30.131 54.9999C29.8851 54.9999 29.7212 54.754 29.7212 54.5901L31.3605 35.8196C31.3605 35.6557 31.4425 35.5737 31.5245 35.4918C31.6064 35.4098 31.7704 35.4098 31.9343 35.4918L39.7212 38.8524C39.9671 38.9344 40.049 39.1803 39.9671 39.4262C39.8851 39.6721 39.6392 39.7541 39.3933 39.6721L32.0983 36.5573L30.5409 54.754C30.4589 54.836 30.295 54.9999 30.131 54.9999Z" fill="#424A52"/>
<path d="M49.8033 13.5245C49.8033 10.9835 47.5082 8.93437 44.8033 9.50814C43.2459 9.83601 42.0164 11.1475 41.6885 12.7049C41.4426 14.0983 41.8525 15.4098 42.6722 16.3114C43.2459 16.9671 43.6558 17.7868 43.6558 18.6065V18.8524H47.7541V18.6885C47.7541 17.7868 48.164 16.9671 48.7377 16.3114C49.3935 15.5737 49.8033 14.5901 49.8033 13.5245Z" fill="#C9C9C4"/>
<path d="M47.7535 19.3444H43.6552C43.4093 19.3444 43.2454 19.1804 43.2454 18.9345V18.6886C43.2454 17.9509 42.9175 17.2132 42.3437 16.6395C41.3601 15.5739 40.9503 14.0985 41.2781 12.705C41.606 10.9837 42.9995 9.59028 44.7208 9.18044C46.1142 8.85258 47.5077 9.26241 48.4913 10.0821C49.5568 10.9837 50.1306 12.2132 50.1306 13.6067C50.1306 14.7542 49.7208 15.8198 48.9831 16.6395C48.5732 17.0493 48.0814 17.787 48.0814 18.6886V18.9345C48.1634 19.0985 47.9994 19.3444 47.7535 19.3444ZM44.065 18.5247H47.3437C47.4257 17.6231 47.7536 16.8034 48.4093 16.0657C49.065 15.4099 49.3929 14.5083 49.3929 13.6067C49.3929 12.4591 48.9011 11.4755 47.9995 10.7378C47.0978 10.0001 45.9503 9.75421 44.8847 10.0001C43.4913 10.328 42.3437 11.4755 42.0978 12.869C41.8519 14.0165 42.1798 15.246 42.9995 16.0657C43.6552 16.7214 44.065 17.6231 44.065 18.5247Z" fill="#424A52"/>
<path d="M45.7046 23.4427C44.3112 23.4427 43.2456 22.3771 43.2456 20.9837V18.9345C43.2456 18.6886 43.4095 18.5247 43.6554 18.5247H47.7538C47.9997 18.5247 48.1636 18.6886 48.1636 18.9345V20.9837C48.1636 22.2951 47.0981 23.4427 45.7046 23.4427ZM44.0653 19.3443V20.9837C44.0653 21.8853 44.803 22.623 45.7046 22.623C46.6063 22.623 47.344 21.8853 47.344 20.9837V19.3443H44.0653Z" fill="#424A52"/>
<path d="M47.7538 21.3934H43.6554C43.4095 21.3934 43.2456 21.2295 43.2456 20.9836C43.2456 20.7377 43.4095 20.5737 43.6554 20.5737H47.7538C47.9997 20.5737 48.1636 20.7377 48.1636 20.9836C48.1636 21.2295 47.9997 21.3934 47.7538 21.3934Z" fill="#424A52"/>
<path d="M45.7048 7.45901C45.4589 7.45901 45.2949 7.29508 45.2949 7.04918V5.40984C45.2949 5.16393 45.4589 5 45.7048 5C45.9507 5 46.1146 5.16393 46.1146 5.40984V7.04918C46.1146 7.21311 45.9507 7.45901 45.7048 7.45901Z" fill="#424A52"/>
<path d="M41.6066 8.8525C41.5247 8.8525 41.3608 8.8525 41.2788 8.77053L40.1313 7.62299C39.9673 7.45906 39.9673 7.21315 40.1313 7.04922C40.2952 6.88529 40.5411 6.88529 40.705 7.04922L41.8526 8.19676C42.0165 8.36069 42.0165 8.6066 41.8526 8.77053C41.8526 8.77053 41.7706 8.8525 41.6066 8.8525Z" fill="#424A52"/>
<path d="M49.8034 8.8525C49.7214 8.8525 49.5575 8.8525 49.4755 8.77053C49.3116 8.6066 49.3116 8.36069 49.4755 8.19676L50.623 7.04922C50.787 6.88529 51.0329 6.88529 51.1968 7.04922C51.3607 7.21315 51.3607 7.45906 51.1968 7.62299L50.0493 8.77053C50.0493 8.77053 49.9673 8.8525 49.8034 8.8525Z" fill="#424A52"/>
<path d="M45.7048 19.3443C45.4589 19.3443 45.2949 19.1804 45.2949 18.9345V14.8361C45.2949 14.5902 45.4589 14.4263 45.7048 14.4263C45.9507 14.4263 46.1146 14.5902 46.1146 14.8361V18.9345C46.1146 19.0984 45.9507 19.3443 45.7048 19.3443Z" fill="#424A52"/>
</svg>
