<svg width="60" height="60" viewBox="0 0 60 60" fill="none" xmlns="http://www.w3.org/2000/svg">
<path d="M47.6557 56.5463H13.1683C12.6238 56.5463 12.2607 56.1833 12.2607 55.6388V53.3699C12.2607 52.0993 13.2591 51.101 14.5296 51.101H46.2944C47.5649 51.101 48.5633 52.0993 48.5633 53.3699V55.6388C48.5633 56.1833 48.1095 56.5463 47.6557 56.5463Z" fill="#C9C9C4"/>
<path d="M47.6554 57H13.168C12.4419 57 11.8066 56.3647 11.8066 55.6387V53.3698C11.8066 51.8269 12.9865 50.6471 14.5293 50.6471H46.294C47.8369 50.6471 49.0167 51.8269 49.0167 53.3698V55.6387C49.0167 56.3647 48.3814 57 47.6554 57ZM14.5293 51.5547C13.531 51.5547 12.7142 52.3715 12.7142 53.3698V55.6387C12.7142 55.911 12.8957 56.0925 13.168 56.0925H47.6554C47.9276 56.0925 48.1092 55.911 48.1092 55.6387V53.3698C48.1092 52.3715 47.2924 51.5547 46.294 51.5547H14.5293Z" fill="#424A52"/>
<path d="M44.9326 51.1009H15.8906V47.9244C15.8906 46.6538 16.8889 45.6555 18.1595 45.6555H42.6637C43.9343 45.6555 44.9326 46.6538 44.9326 47.9244V51.1009Z" fill="#C9C9C4"/>
<path d="M44.9328 51.5546H15.8908C15.6185 51.5546 15.437 51.3731 15.437 51.1008V47.9243C15.437 46.3815 16.6168 45.2017 18.1597 45.2017H42.6639C44.2068 45.2017 45.3866 46.3815 45.3866 47.9243V51.1008C45.3866 51.3731 45.1143 51.5546 44.9328 51.5546ZM16.3446 50.647H44.479V47.9243C44.479 46.926 43.6622 46.1092 42.6639 46.1092H18.1597C17.1614 46.1092 16.3446 46.926 16.3446 47.9243V50.647Z" fill="#424A52"/>
<path d="M36.0386 46.1092H24.2403C24.0587 46.1092 23.968 46.0185 23.8772 45.9278L19.884 39.6656C15.0739 32.1328 15.6184 22.331 21.2453 15.4336L25.2386 10.5328L26.6907 7.53781C27.2352 6.44873 28.1428 5.63195 29.3226 5.17817L32.2268 3.99829C32.4083 3.90753 32.5898 3.99827 32.6806 4.08902C32.7713 4.17978 32.8621 4.36129 32.8621 4.54281L32.0453 9.17147C34.5865 8.8992 37.1276 9.6252 39.1243 11.1681L50.8318 20.516C51.1949 20.7883 51.3764 21.1513 51.3764 21.605C51.3764 22.0588 51.1949 22.4218 50.8318 22.6941L48.7445 24.1463L48.2907 25.2353C47.7461 26.5966 46.2033 27.2319 44.8419 26.6874L40.6671 25.1446C39.3058 24.6 37.763 24.8722 36.6739 25.8705L36.3108 26.1428L39.0335 29.3193C41.6655 32.4958 42.0285 37.0337 39.8503 40.4824L36.5831 45.7462C36.3108 46.0185 36.2201 46.1092 36.0386 46.1092ZM24.5125 45.2017H35.7663L38.9428 40.1193C40.9394 36.9429 40.6671 32.8588 38.2167 29.9546L35.2218 26.4152C35.131 26.3244 35.131 26.2336 35.131 26.0521C35.131 25.8706 35.2218 25.7798 35.3125 25.7798L36.0386 25.1446C37.3999 23.9647 39.3058 23.6924 40.9394 24.3277L45.1142 25.8705C46.0218 26.2336 47.0201 25.7798 47.3831 24.8722L47.9277 23.6925C47.9277 23.6017 48.0184 23.5109 48.1091 23.5109L50.2873 21.9681C50.3781 21.8773 50.4688 21.7865 50.4688 21.605C50.4688 21.4235 50.3781 21.3327 50.2873 21.242L38.5797 11.8942C36.6739 10.3513 34.1327 9.71598 31.6823 10.1698C31.5008 10.1698 31.41 10.1698 31.3192 10.079C31.2285 9.98827 31.1377 9.80674 31.2285 9.71598L32.0453 5.2689L29.8672 6.17646C28.9596 6.53949 28.1428 7.2655 27.689 8.17306L26.2369 11.1681C26.2369 11.1681 26.2369 11.2588 26.1461 11.2588L22.1529 16.1597C16.7982 22.7849 16.2537 32.1327 20.8823 39.3932L24.5125 45.2017Z" fill="#424A52"/>
<path d="M6.36134 15.252H5.45378C5.18151 15.252 5 15.0705 5 14.7983C5 14.526 5.18151 14.3445 5.45378 14.3445H6.36134C6.63361 14.3445 6.81513 14.526 6.81513 14.7983C6.81513 15.0705 6.54286 15.252 6.36134 15.252Z" fill="#424A52"/>
<path d="M15.8907 15.252H8.17644C7.90417 15.252 7.72266 15.0705 7.72266 14.7983C7.72266 14.526 7.90417 14.3445 8.17644 14.3445H15.8907C16.163 14.3445 16.3445 14.526 16.3445 14.7983C16.3445 15.0705 16.0722 15.252 15.8907 15.252Z" fill="#424A52"/>
<path d="M55.3696 37.9411H54.4621C54.1898 37.9411 54.0083 37.7596 54.0083 37.4874C54.0083 37.2151 54.1898 37.0336 54.4621 37.0336H55.3696C55.6419 37.0336 55.8234 37.2151 55.8234 37.4874C55.8234 37.7596 55.5512 37.9411 55.3696 37.9411Z" fill="#424A52"/>
<path d="M52.6471 37.9411H44.9328C44.6605 37.9411 44.479 37.7596 44.479 37.4874C44.479 37.2151 44.6605 37.0336 44.9328 37.0336H52.6471C52.9193 37.0336 53.1009 37.2151 53.1009 37.4874C53.1009 37.7596 52.8286 37.9411 52.6471 37.9411Z" fill="#424A52"/>
<path d="M48.2002 5.72275H44.57C44.2977 5.72275 44.1162 5.54124 44.1162 5.26897C44.1162 4.9967 44.2977 4.81519 44.57 4.81519H48.2002C48.4725 4.81519 48.654 4.9967 48.654 5.26897C48.654 5.54124 48.4725 5.72275 48.2002 5.72275Z" fill="#424A52"/>
<path d="M46.3849 7.53782C46.1127 7.53782 45.9312 7.3563 45.9312 7.08403V3.45378C45.9312 3.18151 46.1127 3 46.3849 3C46.6572 3 46.8387 3.18151 46.8387 3.45378V7.08403C46.8387 7.3563 46.6572 7.53782 46.3849 7.53782Z" fill="#424A52"/>
<path d="M54.5533 10.7143H50.923C50.6508 10.7143 50.4692 10.5328 50.4692 10.2605C50.4692 9.98828 50.6508 9.80676 50.923 9.80676H54.5533C54.8255 9.80676 55.0071 9.98828 55.0071 10.2605C55.0071 10.5328 54.8255 10.7143 54.5533 10.7143Z" fill="#424A52"/>
<path d="M52.738 12.5294C52.4657 12.5294 52.2842 12.3479 52.2842 12.0756V8.44536C52.2842 8.17309 52.4657 7.99158 52.738 7.99158C53.0102 7.99158 53.1917 8.17309 53.1917 8.44536V12.0756C53.1917 12.3479 53.0102 12.5294 52.738 12.5294Z" fill="#424A52"/>
<path d="M30.4115 46.1093C30.3207 46.1093 30.23 46.1093 30.1392 46.0185C29.9577 45.837 29.8669 45.5647 30.0485 45.3832L32.9527 41.2084C35.3123 37.7597 34.9493 33.1311 31.9543 30.2269L28.2333 26.5059C28.1426 26.4152 28.0518 26.1429 28.1426 26.0521C28.2333 25.8706 28.4148 25.7798 28.5964 25.7798L35.8569 25.6891C36.1291 25.6891 36.3106 25.8706 36.3106 26.1429C36.3106 26.4151 36.1291 26.5966 35.8569 26.5966L29.6854 26.6874L32.5897 29.5917C35.8569 32.8589 36.3106 37.9411 33.6787 41.7529L30.7745 45.9278C30.6838 46.0185 30.5022 46.1093 30.4115 46.1093Z" fill="#424A52"/>
<path d="M40.4858 15.7059L32.7715 13.437L34.7681 16.6135C35.4034 17.7026 36.8555 17.9749 37.8538 17.3396L40.4858 15.7059Z" fill="#E60D2E"/>
<path d="M36.674 18.0654C35.7664 18.0654 34.8588 17.6116 34.405 16.7948L32.4084 13.6183C32.3176 13.4368 32.3176 13.2553 32.4084 13.0738C32.4992 12.8923 32.6807 12.8923 32.8622 12.8923L40.5765 15.1612C40.758 15.252 40.8487 15.3428 40.9395 15.5243C40.9395 15.7058 40.8487 15.8873 40.758 15.9781L38.126 17.6116C37.6723 17.9746 37.1277 18.0654 36.674 18.0654ZM33.7697 14.2537L35.1311 16.4319C35.6756 17.2487 36.7647 17.5209 37.5815 16.9764L39.3059 15.8872L33.7697 14.2537Z" fill="#424A52"/>
</svg>
