<svg width="60" height="60" viewBox="0 0 60 60" fill="none" xmlns="http://www.w3.org/2000/svg">
<path d="M47.7893 17.3193L44.5051 20.6035C48.884 27.3544 48.063 36.3859 42.2244 42.2245C35.4735 48.9754 24.4349 48.9754 17.684 42.2245C10.9332 35.4736 10.9332 24.4351 17.684 17.6842C23.5226 11.8456 32.6454 11.0245 39.3051 15.4035L42.5893 12.1192C34.0138 6.00696 22.063 6.82805 14.3998 14.4912C5.8244 23.0666 5.8244 36.9333 14.3998 45.4175C22.9753 53.9929 36.8419 53.9929 45.3261 45.4175C53.0805 37.8456 53.9016 25.8947 47.7893 17.3193Z" fill="#E60D2E"/>
<path d="M4.45614 30.4561C4.18246 30.4561 4 30.2737 4 30C4 15.6772 15.6772 4 30 4C30.2737 4 30.4561 4.18246 30.4561 4.45614C30.4561 4.72982 30.2737 4.91228 30 4.91228C16.1333 4.91228 4.91228 16.1333 4.91228 30C4.91228 30.2737 4.6386 30.4561 4.45614 30.4561Z" fill="#424A52"/>
<path d="M32.7368 4.91228H31.8245C31.5509 4.91228 31.3684 4.72982 31.3684 4.45614C31.3684 4.18246 31.5509 4 31.8245 4H32.7368C33.0105 4 33.193 4.18246 33.193 4.45614C33.193 4.72982 32.9193 4.91228 32.7368 4.91228Z" fill="#424A52"/>
<path d="M30.0001 56.0001C29.7264 56.0001 29.5439 55.8176 29.5439 55.5439C29.5439 55.2703 29.7264 55.0878 30.0001 55.0878C43.8668 55.0878 55.0878 43.8668 55.0878 30.0001C55.0878 29.7264 55.2703 29.5439 55.5439 29.5439C55.8176 29.5439 56.0001 29.7264 56.0001 30.0001C56.0001 44.4141 44.3229 56.0001 30.0001 56.0001Z" fill="#424A52"/>
<path d="M28.1755 56H27.2633C26.9896 56 26.8071 55.8176 26.8071 55.5439C26.8071 55.2702 26.9896 55.0878 27.2633 55.0878H28.1755C28.4492 55.0878 28.6317 55.2702 28.6317 55.5439C28.6317 55.8176 28.358 56 28.1755 56Z" fill="#424A52"/>
<path d="M44.5967 6.73687H40.9476C40.6739 6.73687 40.4915 6.55441 40.4915 6.28073C40.4915 6.00704 40.6739 5.82458 40.9476 5.82458H44.5967C44.8704 5.82458 45.0529 6.00704 45.0529 6.28073C45.0529 6.55441 44.7792 6.73687 44.5967 6.73687Z" fill="#424A52"/>
<path d="M42.7721 8.5614C42.4984 8.5614 42.3159 8.37895 42.3159 8.10526V4.45614C42.3159 4.18246 42.4984 4 42.7721 4C43.0457 4 43.2282 4.18246 43.2282 4.45614V8.10526C43.2282 8.37895 42.9545 8.5614 42.7721 8.5614Z" fill="#424A52"/>
<path d="M55.5437 18.1403H51.8946C51.6209 18.1403 51.4385 17.9579 51.4385 17.6842C51.4385 17.4105 51.6209 17.228 51.8946 17.228H55.5437C55.8174 17.228 55.9999 17.4105 55.9999 17.6842C55.9999 17.9579 55.7262 18.1403 55.5437 18.1403Z" fill="#424A52"/>
<path d="M53.7196 19.965C53.4459 19.965 53.2634 19.7825 53.2634 19.5088V15.8597C53.2634 15.586 53.4459 15.4036 53.7196 15.4036C53.9933 15.4036 54.1757 15.586 54.1757 15.8597V19.5088C54.1757 19.7825 53.902 19.965 53.7196 19.965Z" fill="#424A52"/>
<path d="M55.0876 10.0211L49.9788 15.2211L45.4174 14.5825L44.7788 10.0211L49.9788 4.91235L50.6174 9.3825L55.0876 10.0211Z" fill="#C9C9C4"/>
<path d="M49.979 15.6771C49.8878 15.6771 49.979 15.6771 49.979 15.6771L45.4176 15.0385C45.2351 15.0385 45.0527 14.8561 45.0527 14.6737L44.4141 10.2035C44.4141 10.021 44.4141 9.92975 44.5053 9.83852L49.7053 4.63856C49.7966 4.54734 49.979 4.45607 50.1615 4.5473C50.3439 4.63853 50.4351 4.72978 50.4351 4.91224L51.0738 9.10871L55.2702 9.74731C55.4527 9.74731 55.5439 9.92976 55.6352 10.021C55.7264 10.2034 55.6351 10.3859 55.5439 10.4771L50.3439 15.6771C50.1614 15.5859 50.0702 15.6771 49.979 15.6771ZM45.8737 14.1263L49.7965 14.6737L54.1755 10.2947L50.5264 9.74731C50.3439 9.74731 50.1615 9.56484 50.1615 9.38238L49.6141 5.73326L45.2351 10.1122L45.8737 14.1263Z" fill="#424A52"/>
<path d="M45.4178 14.5825L45.0529 12.3018L28.6318 28.7228C27.902 29.4526 27.902 30.5474 28.6318 31.2772C29.3617 32.007 30.4564 32.007 31.1862 31.2772L47.6073 14.8561L45.4178 14.5825Z" fill="#C9C9C4"/>
<path d="M30.0002 32.2808C29.4528 32.2808 28.8142 32.0983 28.3581 31.6421C27.9019 31.186 27.7195 30.6386 27.7195 30.0001C27.7195 29.3615 27.9932 28.8141 28.3581 28.358L44.7791 11.9369C44.8704 11.8457 45.0528 11.7544 45.2353 11.8456C45.4177 11.9369 45.509 12.0281 45.509 12.2106L45.7826 14.1263L47.6985 14.4C47.8809 14.4 47.9721 14.5825 48.0633 14.6737C48.1546 14.8562 48.0634 15.0387 47.9721 15.1299L31.5511 31.5509C31.0949 32.0983 30.5476 32.2808 30.0002 32.2808ZM44.7791 13.3053L28.9967 29.0878C28.723 29.3615 28.6318 29.7263 28.6318 30.0913C28.6318 30.4562 28.8142 30.8211 28.9967 31.0948C29.5441 31.6422 30.3651 31.6422 30.9125 31.0948L46.6949 15.3123L45.3265 15.1299C45.144 15.1299 44.9616 14.9474 44.9616 14.765L44.7791 13.3053Z" fill="#424A52"/>
<path d="M41.2211 23.9789L37.7544 27.4456C38.0281 28.1755 38.1193 28.9052 38.2106 29.6351C38.3018 31.0947 37.9369 32.6456 37.2071 34.014C36.8422 34.6526 36.386 35.2912 35.8386 35.9298C32.6457 39.1228 27.4457 39.1228 24.2527 35.9298C23.6141 35.2912 23.158 34.6526 22.793 33.9228C21.5158 31.5509 21.5158 28.6315 22.793 26.2596C23.158 25.5298 23.6141 24.8912 24.2527 24.2526C26.5334 21.9719 29.8176 21.3333 32.6457 22.2456L36.1123 18.779C31.2772 16.1333 25.0737 16.8631 20.9685 20.9684C15.9509 25.9859 15.9509 34.014 20.9685 39.0315C25.986 44.0491 34.0141 44.0491 39.0316 39.0315C43.0457 35.0175 43.7755 28.814 41.2211 23.9789Z" fill="#E60D2E"/>
<path d="M44.5051 20.6034L41.2209 23.8876C43.8665 28.7227 43.1367 34.9262 39.0314 39.0315C34.0139 44.049 25.9858 44.049 20.9683 39.0315C15.9508 34.0139 15.9508 25.9859 20.9683 20.9683C25.0736 16.8631 31.1858 16.1333 36.1121 18.7789L39.3963 15.4946C32.6454 11.1157 23.6139 11.9367 17.7753 17.7753C11.0244 24.5262 11.0244 35.5648 17.7753 42.3157C24.5262 49.0666 35.5648 49.0666 42.3156 42.3157C48.063 36.3859 48.8841 27.3543 44.5051 20.6034Z" fill="white"/>
<path d="M30.0003 52.3509C24.2529 52.3509 18.5968 50.1614 14.2178 45.7825C5.45994 37.0246 5.45994 22.8843 14.2178 14.2176C21.9722 6.4632 34.0143 5.45966 42.9547 11.8456C43.1371 12.0281 43.2283 12.3018 43.0459 12.4842C42.8634 12.6667 42.5898 12.7579 42.4073 12.5754C33.8319 6.46315 22.2459 7.46666 14.8564 14.8561C6.46346 23.2491 6.46346 36.8421 14.8564 45.1439C23.2494 53.5368 36.8424 53.5368 45.1442 45.1439C52.5336 37.7544 53.5372 26.0772 47.4249 17.593C47.2424 17.4105 47.3336 17.1369 47.5161 16.9544C47.6985 16.772 47.9722 16.8632 48.1547 17.0456C54.5407 25.986 53.5371 38.0281 45.7827 45.7825C41.4038 50.1614 35.6564 52.3509 30.0003 52.3509Z" fill="#424A52"/>
<path d="M29.9999 47.7895C25.4385 47.7895 20.8771 46.0562 17.4105 42.5895C14.035 39.2141 12.2104 34.7439 12.2104 30C12.2104 25.2562 14.035 20.786 17.4105 17.4106C23.3403 11.4808 32.6456 10.5684 39.6701 15.0386C39.8526 15.1298 39.9438 15.4948 39.7613 15.6772C39.5789 15.8597 39.3052 15.9509 39.1227 15.7684C32.4631 11.4807 23.614 12.393 18.0491 18.0491C14.8561 21.2421 13.1227 25.4386 13.1227 30C13.1227 34.5614 14.8561 38.7579 18.0491 41.9509C24.6175 48.5193 35.2912 48.5193 41.9508 41.9509C47.5157 36.386 48.5193 27.5369 44.2315 20.8772C44.1403 20.6948 44.1403 20.4211 44.3227 20.2386C44.5052 20.1474 44.7789 20.1474 44.9613 20.3298C49.5228 27.3544 48.5192 36.6597 42.5894 42.5895C39.0315 46.0562 34.5613 47.7895 29.9999 47.7895Z" fill="#424A52"/>
<path d="M30 43.228C26.4421 43.228 23.1579 41.8595 20.6036 39.3964C18.1404 36.9332 16.772 33.5578 16.772 29.9999C16.772 26.442 18.1404 23.1578 20.6036 20.6034C24.7088 16.4982 31.186 15.5859 36.2035 18.3227C36.386 18.4139 36.4772 18.6876 36.386 18.9613C36.2948 19.1437 36.0211 19.235 35.7474 19.1437C31.0035 16.5893 24.9825 17.4104 21.1509 21.242C18.8702 23.5227 17.5018 26.6244 17.5018 29.9086C17.5018 33.1928 18.779 36.2946 21.1509 38.5753C23.5228 40.856 26.5334 42.2244 29.8176 42.2244C33.1018 42.2244 36.2035 40.9472 38.4842 38.5753C42.3158 34.7437 43.1369 28.7227 40.5825 23.9788C40.4913 23.7964 40.5825 23.5227 40.7649 23.3403C40.9474 23.249 41.2211 23.3402 41.4036 23.5227C44.1404 28.6314 43.2281 35.0174 39.1229 39.1227C36.8421 41.8595 33.4667 43.228 30 43.228Z" fill="#424A52"/>
<path d="M30.0001 38.6666C27.8106 38.6666 25.5299 37.8456 23.8878 36.1122C20.5123 32.7368 20.5123 27.2631 23.8878 23.8876C26.2597 21.5157 29.6352 20.7859 32.7369 21.7894C33.0106 21.8806 33.1018 22.1543 33.0106 22.3368C32.9194 22.6104 32.6457 22.7017 32.4632 22.6104C29.6352 21.6982 26.6246 22.3368 24.5264 24.435C21.5159 27.4455 21.5159 32.3718 24.5264 35.3824C27.5369 38.3929 32.4632 38.3929 35.4738 35.3824C37.572 33.2841 38.3018 30.2736 37.2983 27.4456C37.2071 27.1719 37.3895 26.9894 37.572 26.8982C37.8457 26.8069 38.0282 26.9894 38.1194 27.1718C39.2141 30.2736 38.3931 33.7403 36.0212 36.021C34.3791 37.8455 32.1895 38.6666 30.0001 38.6666Z" fill="#424A52"/>
<path d="M45.4175 15.0385C45.3263 15.0385 45.1438 15.0385 45.0526 14.9473C44.8702 14.7648 44.8702 14.4911 45.0526 14.3087L50.2526 9.10864C50.4351 8.92619 50.7088 8.92619 50.8912 9.10864C51.0737 9.2911 51.0737 9.5648 50.8912 9.74725L45.6912 14.9473C45.6912 14.9473 45.6 15.0385 45.4175 15.0385Z" fill="#424A52"/>
</svg>
