<svg width="60" height="60" viewBox="0 0 60 60" fill="none" xmlns="http://www.w3.org/2000/svg">
<path d="M37.0065 18.577C36.7507 16.4459 34.9606 14.741 32.7442 14.741C31.8065 14.741 30.8688 15.082 30.1868 15.5934C29.5048 15.082 28.5671 14.741 27.6294 14.741C25.413 14.741 23.5376 16.4459 23.3671 18.6623C21.3212 19.0885 19.7868 20.8787 19.9573 23.0951C20.1278 25.3967 22.0884 27.1016 24.3901 27.1016H25.9245V29.8295C25.9245 30.5967 26.9474 31.0229 27.4589 30.341L30.1868 27.0164H37.0065C39.8196 27.0164 42.036 24.2885 41.013 21.3049C40.5015 19.6852 38.7966 18.577 37.0065 18.577Z" fill="#E60D2E"/>
<path d="M26.7768 31.1934C26.6063 31.1934 26.5211 31.1933 26.3506 31.1081C25.8391 30.9376 25.4981 30.4261 25.4981 29.9147V27.613H24.3899C21.8326 27.613 19.7014 25.6524 19.5309 23.1802C19.4457 20.9638 20.8949 18.9179 23.026 18.4065C23.367 16.1048 25.3276 14.3999 27.6293 14.3999C28.567 14.3999 29.4194 14.6556 30.1867 15.1671C30.9539 14.6556 31.8063 14.3999 32.744 14.3999C35.0457 14.3999 36.9211 16.0196 37.3473 18.236C39.2227 18.3212 40.8424 19.5999 41.4391 21.3901C41.9506 22.9245 41.6948 24.4589 40.7571 25.7376C39.9047 26.931 38.4555 27.6983 36.9211 27.6983H30.2719L27.6293 30.8524C27.544 31.0228 27.1178 31.1934 26.7768 31.1934ZM27.6293 15.1671C25.5834 15.1671 23.9637 16.7015 23.7932 18.6622C23.7932 18.8327 23.6227 19.0032 23.4522 19.0884C21.5768 19.4294 20.2129 21.1343 20.3834 23.095C20.4686 25.1409 22.2588 26.6753 24.3899 26.6753H25.9244C26.1801 26.6753 26.3506 26.8458 26.3506 27.1015V29.8294C26.3506 30.0852 26.6063 30.1704 26.6063 30.2556C26.6063 30.3409 26.8621 30.3409 27.1178 30.0851L29.8457 26.7606C29.9309 26.6753 30.0162 26.5901 30.1867 26.5901H37.0063C38.1998 26.5901 39.3932 25.9933 40.0752 24.9704C40.8424 23.9474 41.0129 22.6688 40.5867 21.3901C40.0752 19.8557 38.626 18.8327 36.9211 18.8327H36.8358C36.5801 18.8327 36.4096 18.6622 36.4096 18.4917C36.2391 16.531 34.6194 14.9966 32.5735 14.9966C31.7211 14.9966 30.9539 15.2524 30.2719 15.7638C30.1014 15.8491 29.9309 15.8491 29.7604 15.7638C29.2489 15.4229 28.4817 15.1671 27.6293 15.1671Z" fill="#424A52"/>
<path d="M53.4591 13.377H50.0493C49.7935 13.377 49.623 13.2065 49.623 12.9508C49.623 12.695 49.7935 12.5245 50.0493 12.5245H53.4591C53.7149 12.5245 53.8853 12.695 53.8853 12.9508C53.8853 13.2065 53.6296 13.377 53.4591 13.377Z" fill="#424A52"/>
<path d="M49.1969 8.26225H45.7871C45.5313 8.26225 45.3608 8.09176 45.3608 7.83602C45.3608 7.58028 45.5313 7.40979 45.7871 7.40979H49.1969C49.4526 7.40979 49.6231 7.58028 49.6231 7.83602C49.6231 8.09176 49.3674 8.26225 49.1969 8.26225Z" fill="#424A52"/>
<path d="M47.4917 9.96713C47.2359 9.96713 47.0654 9.79664 47.0654 9.5409V6.13106C47.0654 5.87533 47.2359 5.70483 47.4917 5.70483C47.7474 5.70483 47.9179 5.87533 47.9179 6.13106V9.5409C47.9179 9.71139 47.6622 9.96713 47.4917 9.96713Z" fill="#424A52"/>
<path d="M51.7539 15.0819C51.4981 15.0819 51.3276 14.9114 51.3276 14.6557V11.2459C51.3276 10.9901 51.4981 10.8196 51.7539 10.8196C52.0096 10.8196 52.1801 10.9901 52.1801 11.2459V14.6557C52.1801 14.8262 51.9244 15.0819 51.7539 15.0819Z" fill="#424A52"/>
<path d="M8.27869 52.5901H7.42623C7.17049 52.5901 7 52.4196 7 52.1639C7 51.9082 7.17049 51.7377 7.42623 51.7377H8.27869C8.53443 51.7377 8.70492 51.9082 8.70492 52.1639C8.70492 52.4196 8.44918 52.5901 8.27869 52.5901Z" fill="#424A52"/>
<path d="M19.3609 52.5901H9.98385C9.72811 52.5901 9.55762 52.4196 9.55762 52.1639C9.55762 51.9082 9.72811 51.7377 9.98385 51.7377H19.3609C19.6166 51.7377 19.7871 51.9082 19.7871 52.1639C19.7871 52.4196 19.5314 52.5901 19.3609 52.5901Z" fill="#424A52"/>
<path d="M50.0492 52.5901H49.1967C48.941 52.5901 48.7705 52.4196 48.7705 52.1639C48.7705 51.9082 48.941 51.7377 49.1967 51.7377H50.0492C50.3049 51.7377 50.4754 51.9082 50.4754 52.1639C50.4754 52.4196 50.2197 52.5901 50.0492 52.5901Z" fill="#424A52"/>
<path d="M47.4918 52.5901H38.1147C37.859 52.5901 37.6885 52.4196 37.6885 52.1639C37.6885 51.9082 37.859 51.7377 38.1147 51.7377H47.4918C47.7475 51.7377 47.918 51.9082 47.918 52.1639C47.918 52.4196 47.6622 52.5901 47.4918 52.5901Z" fill="#424A52"/>
<path d="M35.5576 55.9999C35.3018 55.9999 35.1313 55.8294 35.1313 55.5737V47.9016C35.1313 47.6458 35.3018 47.4753 35.5576 47.4753C35.8133 47.4753 35.9838 47.6458 35.9838 47.9016V55.5737C35.9838 55.7442 35.7281 55.9999 35.5576 55.9999Z" fill="#424A52"/>
<path d="M25.4984 24.1179C24.8164 24.1179 24.2197 23.5212 24.2197 22.8392C24.2197 22.1573 24.8164 21.5605 25.4984 21.5605C26.1804 21.5605 26.7771 22.1573 26.7771 22.8392C26.7771 23.5212 26.1804 24.1179 25.4984 24.1179ZM25.4984 22.413C25.2427 22.413 25.0722 22.5835 25.0722 22.8392C25.0722 23.095 25.2427 23.2655 25.4984 23.2655C25.7542 23.2655 25.9246 23.095 25.9246 22.8392C25.9246 22.5835 25.7542 22.413 25.4984 22.413Z" fill="#424A52"/>
<path d="M30.6132 24.1179C29.9312 24.1179 29.3345 23.5212 29.3345 22.8392C29.3345 22.1573 29.9312 21.5605 30.6132 21.5605C31.2951 21.5605 31.8918 22.1573 31.8918 22.8392C31.8918 23.5212 31.2951 24.1179 30.6132 24.1179ZM30.6132 22.413C30.3574 22.413 30.1869 22.5835 30.1869 22.8392C30.1869 23.095 30.3574 23.2655 30.6132 23.2655C30.8689 23.2655 31.0394 23.095 31.0394 22.8392C31.0394 22.5835 30.8689 22.413 30.6132 22.413Z" fill="#424A52"/>
<path d="M35.7279 24.1179C35.0459 24.1179 34.4492 23.5212 34.4492 22.8392C34.4492 22.1573 35.0459 21.5605 35.7279 21.5605C36.4099 21.5605 37.0066 22.1573 37.0066 22.8392C37.0066 23.5212 36.4099 24.1179 35.7279 24.1179ZM35.7279 22.413C35.4722 22.413 35.3017 22.5835 35.3017 22.8392C35.3017 23.095 35.4722 23.2655 35.7279 23.2655C35.9836 23.2655 36.1541 23.095 36.1541 22.8392C36.1541 22.5835 35.9836 22.413 35.7279 22.413Z" fill="#424A52"/>
<path d="M18.849 12.8654C18.849 10.2228 16.4621 8.09163 13.649 8.68835C12.0293 9.02934 10.7506 10.3933 10.4096 12.013C10.1539 13.4621 10.5801 14.8261 11.4326 15.7638C12.0293 16.4457 12.4556 17.2982 12.4556 18.1507V18.4064H16.7179V18.2359C16.7179 17.2982 17.1441 16.4457 17.7408 15.7638C18.508 14.9966 18.849 13.9736 18.849 12.8654Z" fill="#C9C9C4"/>
<path d="M16.7177 18.918H12.4554C12.1997 18.918 12.0292 18.7475 12.0292 18.4917V18.236C12.0292 17.4688 11.6882 16.7016 11.0915 16.1048C10.0685 14.9966 9.6423 13.4622 9.98328 12.0131C10.3243 10.2229 11.7735 8.77369 13.5636 8.34746C15.0128 8.09173 16.462 8.43271 17.4849 9.28517C18.5931 10.2229 19.1899 11.5016 19.1899 12.9507C19.1899 14.1442 18.7636 15.2524 17.9964 16.1048C17.5702 16.5311 17.0587 17.2983 17.0587 18.236V18.4917C17.144 18.6622 16.9735 18.918 16.7177 18.918ZM12.8817 18.0655H16.2915C16.3767 17.1278 16.7177 16.2753 17.3997 15.5081C18.0816 14.8261 18.4226 13.8884 18.4226 12.9507C18.4226 11.7573 17.9112 10.7343 16.9735 9.96713C16.0357 9.19992 14.9276 8.94419 13.7341 9.19992C12.2849 9.54091 11.0915 10.7343 10.8357 12.1835C10.58 13.377 10.921 14.6557 11.7734 15.5081C12.4554 16.1901 12.8817 17.1278 12.8817 18.0655Z" fill="#424A52"/>
<path d="M14.5867 23.1802C13.1375 23.1802 12.0293 22.072 12.0293 20.6229V18.4917C12.0293 18.236 12.1998 18.0655 12.4555 18.0655H16.7178C16.9736 18.0655 17.1441 18.236 17.1441 18.4917V20.6229C17.1441 21.9868 16.0359 23.1802 14.5867 23.1802ZM12.8818 18.9179V20.6229C12.8818 21.5606 13.649 22.3278 14.5867 22.3278C15.5244 22.3278 16.2916 21.5606 16.2916 20.6229V18.9179H12.8818Z" fill="#424A52"/>
<path d="M16.7178 21.0491H12.4555C12.1998 21.0491 12.0293 20.8786 12.0293 20.6229C12.0293 20.3671 12.1998 20.1967 12.4555 20.1967H16.7178C16.9736 20.1967 17.1441 20.3671 17.1441 20.6229C17.1441 20.8786 16.9736 21.0491 16.7178 21.0491Z" fill="#424A52"/>
<path d="M14.5869 6.55732C14.3311 6.55732 14.1606 6.38682 14.1606 6.13109V4.42617C14.1606 4.17043 14.3311 3.99994 14.5869 3.99994C14.8426 3.99994 15.0131 4.17043 15.0131 4.42617V6.13109C15.0131 6.30158 14.8426 6.55732 14.5869 6.55732Z" fill="#424A52"/>
<path d="M10.3249 8.00646C10.2397 8.00646 10.0691 8.00646 9.9839 7.92121L8.79047 6.72777C8.61997 6.55728 8.61997 6.30153 8.79047 6.13104C8.96096 5.96055 9.21671 5.96055 9.3872 6.13104L10.5806 7.32451C10.7511 7.495 10.7511 7.75072 10.5806 7.92121C10.5806 7.92121 10.4954 8.00646 10.3249 8.00646Z" fill="#424A52"/>
<path d="M18.8492 8.00646C18.764 8.00646 18.5935 8.00646 18.5082 7.92121C18.3377 7.75072 18.3377 7.495 18.5082 7.32451L19.7017 6.13104C19.8722 5.96055 20.1279 5.96055 20.2984 6.13104C20.4689 6.30153 20.4689 6.55728 20.2984 6.72777L19.105 7.92121C19.105 7.92121 19.0197 8.00646 18.8492 8.00646Z" fill="#424A52"/>
<path d="M14.5869 18.918C14.3311 18.918 14.1606 18.7475 14.1606 18.4917V14.2295C14.1606 13.9737 14.3311 13.8032 14.5869 13.8032C14.8426 13.8032 15.0131 13.9737 15.0131 14.2295V18.4917C15.0131 18.6622 14.8426 18.918 14.5869 18.918Z" fill="#424A52"/>
<path d="M21.9181 55.9999C21.6624 55.9999 21.4919 55.8294 21.4919 55.5737V42.7868L18.8493 40.4852C15.0985 37.1606 12.9673 32.3868 12.9673 27.3573V25.6524C12.9673 25.0557 12.9673 24.5442 13.0525 24.1179C13.0525 23.8622 13.3083 23.6917 13.4788 23.6917C13.7345 23.6917 13.905 23.9474 13.905 24.1179C13.905 24.5442 13.8197 25.0557 13.8197 25.5671V27.272C13.8197 32.0458 15.8657 36.5639 19.446 39.718L22.1739 42.1901C22.2591 42.2753 22.3443 42.3606 22.3443 42.5311V55.4885C22.3443 55.7442 22.0886 55.9999 21.9181 55.9999Z" fill="#424A52"/>
<path d="M41.0986 48.3278H31.2953C31.0395 48.3278 30.8691 48.1573 30.8691 47.9016C30.8691 47.6458 31.0395 47.4753 31.2953 47.4753H41.0986C44.4232 47.4753 47.0658 44.8327 47.0658 41.5081V35.9671C47.0658 35.7114 47.2363 35.5409 47.492 35.5409H49.7084C50.3904 35.5409 50.9019 35.1999 51.2428 34.6032C51.5838 34.0065 51.4986 33.3245 51.0723 32.8131L47.0658 27.2721C46.9805 27.1868 46.9806 27.1016 46.9806 27.0163V25.7376C46.9806 16.5311 39.5642 9.11468 30.3576 9.11468C26.8625 9.11468 23.5379 10.2229 20.7248 12.2688C20.5543 12.4393 20.2986 12.354 20.1281 12.1835C19.9576 12.013 20.0428 11.7573 20.2133 11.5868C23.1969 9.45569 26.692 8.34747 30.3576 8.34747C39.9904 8.34747 47.833 16.1901 47.833 25.8229V26.9311L51.7543 32.3868C52.351 33.154 52.351 34.177 51.9248 35.0295C51.4986 35.8819 50.6461 36.3934 49.6232 36.3934H47.833V41.5081C47.9183 45.2589 44.8494 48.3278 41.0986 48.3278Z" fill="#424A52"/>
</svg>
