<svg width="60" height="60" viewBox="0 0 60 60" fill="none" xmlns="http://www.w3.org/2000/svg">
<path d="M30.1667 39.4466C29.3867 39.4466 28.7801 38.9266 28.5201 38.32C28.2601 38.4933 27.9134 38.58 27.5667 38.58C26.7867 38.58 26.1801 38.06 25.9201 37.4533C25.6601 37.6266 25.3134 37.7133 24.9667 37.7133C24.0134 37.7133 23.2334 36.9333 23.2334 35.98V22.98C23.2334 22.72 23.4067 22.5466 23.6667 22.5466C23.9267 22.5466 24.1001 22.72 24.1001 22.98V35.98C24.1001 36.5 24.4467 36.8466 24.9667 36.8466C25.4867 36.8466 25.8334 36.5 25.8334 35.98C25.8334 35.72 26.0067 35.5466 26.2667 35.5466C26.5267 35.5466 26.7001 35.72 26.7001 35.98V36.8466C26.7001 37.3666 27.0467 37.7133 27.5667 37.7133C28.0867 37.7133 28.4334 37.3666 28.4334 36.8466C28.4334 36.5866 28.6067 36.4133 28.8667 36.4133C29.1267 36.4133 29.3001 36.5866 29.3001 36.8466V37.7133C29.3001 38.2333 29.6467 38.58 30.1667 38.58C30.6867 38.58 31.0334 38.2333 31.0334 37.7133V36.4133C31.0334 36.1533 31.2067 35.98 31.4667 35.98C31.7267 35.98 31.9001 36.1533 31.9001 36.4133C31.9001 36.9333 32.2467 37.28 32.7667 37.28C33.2867 37.28 33.6334 36.9333 33.6334 36.4133V29.48C33.6334 29.22 33.8067 29.0466 34.0667 29.0466C34.3267 29.0466 34.5001 29.22 34.5001 29.48C34.5001 30 34.8467 30.3466 35.3667 30.3466C35.8867 30.3466 36.2334 30 36.2334 29.48V26.4466C36.2334 26.0133 36.0601 25.58 35.7134 25.2333L33.7201 23.24C33.5467 23.0666 33.5467 22.8066 33.7201 22.6333C33.8934 22.46 34.1534 22.46 34.3267 22.6333L36.3201 24.6266C36.8401 25.1466 37.1001 25.7533 37.1001 26.4466V29.48C37.1001 30.4333 36.3201 31.2133 35.3667 31.2133C35.0201 31.2133 34.7601 31.1266 34.5001 30.9533V36.4133C34.5001 37.3666 33.7201 38.1466 32.7667 38.1466C32.4201 38.1466 32.1601 38.06 31.9001 37.8866C31.7267 38.84 31.0334 39.4466 30.1667 39.4466Z" fill="#424A52"/>
<path d="M34.9334 17.4333H22.8C22.54 17.4333 22.3667 17.26 22.3667 17V4.43333C22.3667 4.17333 22.54 4 22.8 4C23.06 4 23.2334 4.17333 23.2334 4.43333V16.5667H34.5V4.43333C34.5 4.17333 34.6734 4 34.9334 4C35.1934 4 35.3667 4.17333 35.3667 4.43333V17C35.3667 17.1733 35.1067 17.4333 34.9334 17.4333Z" fill="#424A52"/>
<path d="M31.4665 36.8467C31.2065 36.8467 31.0332 36.6733 31.0332 36.4133V32.08C31.0332 31.82 31.2065 31.6467 31.4665 31.6467C31.7265 31.6467 31.8999 31.82 31.8999 32.08V36.4133C31.8999 36.6733 31.6399 36.8467 31.4665 36.8467Z" fill="#424A52"/>
<path d="M28.8664 37.28C28.6064 37.28 28.4331 37.1067 28.4331 36.8467V32.08C28.4331 31.82 28.6064 31.6467 28.8664 31.6467C29.1264 31.6467 29.2998 31.82 29.2998 32.08V36.8467C29.2998 37.1067 29.0398 37.28 28.8664 37.28Z" fill="#424A52"/>
<path d="M26.2668 36.4133C26.0068 36.4133 25.8335 36.24 25.8335 35.98V32.08C25.8335 31.82 26.0068 31.6467 26.2668 31.6467C26.5268 31.6467 26.7002 31.82 26.7002 32.08V35.98C26.7002 36.24 26.4402 36.4133 26.2668 36.4133Z" fill="#424A52"/>
<path d="M22.7998 16.9133H34.9331V20.38C34.9331 20.9 34.5865 21.2467 34.0665 21.2467H23.6665C23.1465 21.2467 22.7998 20.9 22.7998 20.38V16.9133Z" fill="#C9C9C4"/>
<path d="M34.0667 21.7667H23.6667C22.9734 21.7667 22.3667 21.16 22.3667 20.4667V17C22.3667 16.74 22.54 16.5667 22.8 16.5667H34.9334C35.1934 16.5667 35.3667 16.74 35.3667 17V20.4667C35.3667 21.16 34.76 21.7667 34.0667 21.7667ZM23.2334 17.4333V20.4667C23.2334 20.7267 23.4067 20.9 23.6667 20.9H34.0667C34.3267 20.9 34.5 20.7267 34.5 20.4667V17.4333H23.2334Z" fill="#424A52"/>
<path d="M41.4336 34.8534C41.3469 34.8534 41.1736 34.8534 41.0869 34.7667L37.6202 31.3C37.4469 31.1267 37.4469 30.8667 37.6202 30.6934C37.7936 30.52 38.0536 30.52 38.2269 30.6934L41.6936 34.16C41.8669 34.3334 41.8669 34.5934 41.6936 34.7667C41.6936 34.7667 41.6069 34.8534 41.4336 34.8534Z" fill="#424A52"/>
<path d="M34.1532 42.1333H31.3799C30.6866 42.1333 29.9932 41.8734 29.5599 41.3534L29.1266 40.92C28.9532 40.7467 28.9532 40.4867 29.1266 40.3133C29.2999 40.14 29.5599 40.14 29.7332 40.3133L30.1666 40.7467C30.5132 41.0933 30.9466 41.2667 31.3799 41.2667H34.1532C34.4132 41.2667 34.5866 41.44 34.5866 41.7C34.5866 41.96 34.3266 42.1333 34.1532 42.1333Z" fill="#424A52"/>
<path d="M46.7202 56C46.6335 56 46.4602 56 46.3736 55.9133L37.4469 46.9867C37.2736 46.8133 37.2736 46.5533 37.4469 46.38L46.0269 37.8C46.2002 37.6266 46.4602 37.6266 46.6335 37.8L55.5602 46.64C55.7336 46.8133 55.7336 47.0733 55.5602 47.2467C55.3869 47.42 55.1269 47.42 54.9535 47.2467L46.3736 38.6666L38.4002 46.64L46.9802 55.22C47.1536 55.3933 47.1536 55.6533 46.9802 55.8266C46.8936 55.9133 46.8069 56 46.7202 56Z" fill="#424A52"/>
<path d="M46.3731 38.06L37.7931 46.64L35.3664 44.2134C35.0198 43.8667 35.0198 43.3467 35.3664 43L42.7331 35.6334C43.0798 35.2867 43.5998 35.2867 43.9465 35.6334L46.3731 38.06Z" fill="#E60D2E"/>
<path d="M37.7932 47.0733C37.7066 47.0733 37.5332 47.0733 37.4466 46.9867L35.0199 44.56C34.4999 44.04 34.4999 43.26 35.0199 42.74L42.3865 35.3733C42.9065 34.8533 43.7732 34.8533 44.2066 35.3733L46.6332 37.8C46.8065 37.9733 46.8065 38.2333 46.6332 38.4067L38.0532 46.9867C38.0532 46.9867 37.8799 47.0733 37.7932 47.0733ZM43.3399 35.8067C43.2532 35.8067 43.0799 35.8067 42.9932 35.8933L35.6266 43.26C35.4532 43.4333 35.4532 43.6933 35.6266 43.8667L37.7932 46.0333L45.7665 38.06L43.5999 35.8933C43.5132 35.8067 43.4266 35.8067 43.3399 35.8067Z" fill="#424A52"/>
<path d="M25.3136 42.1333C25.2269 42.1333 25.0536 42.1333 24.9669 42.0466C24.7936 41.8733 24.7936 41.6133 24.9669 41.4399L26.7869 39.6199C26.9603 39.4466 27.2203 39.4466 27.3936 39.6199C27.5669 39.7933 27.5669 40.0533 27.3936 40.2266L25.5736 42.0466C25.4869 42.1333 25.4003 42.1333 25.3136 42.1333Z" fill="#424A52"/>
<path d="M17.9465 34.8533C17.6865 34.8533 17.5132 34.68 17.5132 34.42V31.6466C17.5132 30.9533 17.7732 30.26 18.2932 29.8266L20.4598 27.7466C20.8932 27.3133 21.4998 27.14 22.1065 27.3133C22.3665 27.4 22.4532 27.5733 22.4532 27.8333C22.3665 28.0933 22.1932 28.18 21.9332 28.18C21.5865 28.0933 21.3265 28.18 21.1532 28.3533L18.9865 30.4333C18.6398 30.78 18.4665 31.2133 18.4665 31.6466V34.42C18.3798 34.5933 18.1199 34.8533 17.9465 34.8533Z" fill="#424A52"/>
<path d="M12.7466 56C12.66 56 12.4866 56 12.3999 55.9133C12.2266 55.74 12.2266 55.48 12.3999 55.3067L20.98 46.7266L13.0066 38.7533L4.42662 47.3333C4.25329 47.5066 3.99327 47.5066 3.81994 47.3333C3.64661 47.16 3.64661 46.9 3.81994 46.7266L12.7466 37.8C12.92 37.6266 13.1799 37.6266 13.3533 37.8L21.9333 46.38C22.1066 46.5533 22.1066 46.8133 21.9333 46.9867L13.0066 55.8266C12.9199 55.9133 12.8333 56 12.7466 56Z" fill="#424A52"/>
<path d="M21.5863 46.64L13.0063 38.06L15.433 35.6334C15.7797 35.2867 16.2997 35.2867 16.6464 35.6334L24.013 43C24.3597 43.3467 24.3597 43.8667 24.013 44.2134L21.5863 46.64Z" fill="#E60D2E"/>
<path d="M21.5864 47.0733C21.4998 47.0733 21.3264 47.0733 21.2398 46.9867L12.6598 38.4067C12.4865 38.2333 12.4865 37.9733 12.6598 37.8L15.0864 35.3733C15.6064 34.8533 16.4731 34.8533 16.9064 35.3733L24.2731 42.74C24.7931 43.26 24.7931 44.04 24.2731 44.56L21.8465 46.9867C21.8465 46.9867 21.6731 47.0733 21.5864 47.0733ZM13.6131 38.06L21.5864 46.0333L23.7531 43.8667C23.9264 43.6933 23.9264 43.4333 23.7531 43.26L16.3864 35.8933C16.2131 35.72 15.9531 35.72 15.7798 35.8933L13.6131 38.06Z" fill="#424A52"/>
<path d="M4.16667 26.1H2.43333C2.17333 26.1 2 25.9267 2 25.6667C2 25.4067 2.17333 25.2333 2.43333 25.2333H4.16667C4.42667 25.2333 4.6 25.4067 4.6 25.6667C4.6 25.9267 4.34 26.1 4.16667 26.1Z" fill="#424A52"/>
<path d="M16.7335 26.1H5.90013C5.64013 26.1 5.4668 25.9267 5.4668 25.6667C5.4668 25.4067 5.64013 25.2333 5.90013 25.2333H16.7335C16.9935 25.2333 17.1668 25.4067 17.1668 25.6667C17.1668 25.9267 16.9068 26.1 16.7335 26.1Z" fill="#424A52"/>
<path d="M57.0334 26.1H55.3C55.04 26.1 54.8667 25.9267 54.8667 25.6667C54.8667 25.4067 55.04 25.2333 55.3 25.2333H57.0334C57.2934 25.2333 57.4667 25.4067 57.4667 25.6667C57.4667 25.9267 57.2067 26.1 57.0334 26.1Z" fill="#424A52"/>
<path d="M53.5665 26.1H42.7331C42.4731 26.1 42.2998 25.9267 42.2998 25.6667C42.2998 25.4067 42.4731 25.2333 42.7331 25.2333H53.5665C53.8265 25.2333 53.9998 25.4067 53.9998 25.6667C53.9998 25.9267 53.7398 26.1 53.5665 26.1Z" fill="#424A52"/>
<path d="M47.0665 8.76669H43.5998C43.3398 8.76669 43.1665 8.59336 43.1665 8.33336C43.1665 8.07336 43.3398 7.90002 43.5998 7.90002H47.0665C47.3265 7.90002 47.4998 8.07336 47.4998 8.33336C47.4998 8.59336 47.2398 8.76669 47.0665 8.76669Z" fill="#424A52"/>
<path d="M45.3332 10.5C45.0732 10.5 44.8999 10.3267 44.8999 10.0667V6.60002C44.8999 6.34002 45.0732 6.16669 45.3332 6.16669C45.5932 6.16669 45.7666 6.34002 45.7666 6.60002V10.0667C45.7666 10.24 45.5066 10.5 45.3332 10.5Z" fill="#424A52"/>
<path d="M53.1334 14.4H49.6667C49.4067 14.4 49.2334 14.2267 49.2334 13.9667C49.2334 13.7067 49.4067 13.5333 49.6667 13.5333H53.1334C53.3934 13.5333 53.5667 13.7067 53.5667 13.9667C53.5667 14.2267 53.3067 14.4 53.1334 14.4Z" fill="#424A52"/>
<path d="M51.4001 16.1333C51.1401 16.1333 50.9668 15.96 50.9668 15.7V12.2333C50.9668 11.9733 51.1401 11.8 51.4001 11.8C51.6601 11.8 51.8335 11.9733 51.8335 12.2333V15.7C51.8335 15.8733 51.5735 16.1333 51.4001 16.1333Z" fill="#424A52"/>
</svg>
