<svg width="60" height="60" viewBox="0 0 60 60" fill="none" xmlns="http://www.w3.org/2000/svg">
<path d="M53 38.5H8C6.6 38.5 5.5 37.4 5.5 36V21C5.5 19.6 6.6 18.5 8 18.5H53C54.4 18.5 55.5 19.6 55.5 21V36C55.5 37.3 54.3 38.5 53 38.5Z" fill="#E60D2E"/>
<path d="M53 39H8C6.3 39 5 37.7 5 36V21C5 19.3 6.3 18 8 18H53C54.7 18 56 19.3 56 21V36C56 37.6 54.6 39 53 39ZM8 19C6.9 19 6 19.9 6 21V36C6 37.1 6.9 38 8 38H53C54.1 38 55 37.1 55 36V21C55 19.9 54.1 19 53 19H8Z" fill="#424A52"/>
<path d="M9.5 13H5.5C5.2 13 5 12.8 5 12.5C5 12.2 5.2 12 5.5 12H9.5C9.8 12 10 12.2 10 12.5C10 12.8 9.7 13 9.5 13Z" fill="#424A52"/>
<path d="M15.5 8H11.5C11.2 8 11 7.8 11 7.5C11 7.2 11.2 7 11.5 7H15.5C15.8 7 16 7.2 16 7.5C16 7.8 15.7 8 15.5 8Z" fill="#424A52"/>
<path d="M13.5 10C13.2 10 13 9.8 13 9.5V5.5C13 5.2 13.2 5 13.5 5C13.8 5 14 5.2 14 5.5V9.5C14 9.7 13.7 10 13.5 10Z" fill="#424A52"/>
<path d="M7.5 15C7.2 15 7 14.8 7 14.5V10.5C7 10.2 7.2 10 7.5 10C7.8 10 8 10.2 8 10.5V14.5C8 14.7 7.7 15 7.5 15Z" fill="#424A52"/>
<path d="M1.5 51C1.2 51 1 50.8 1 50.5V36.5C1 36.2 1.2 36 1.5 36C1.8 36 2 36.2 2 36.5V50.5C2 50.7 1.7 51 1.5 51Z" fill="#424A52"/>
<path d="M1.5 35C1.2 35 1 34.8 1 34.5V32.5C1 32.2 1.2 32 1.5 32C1.8 32 2 32.2 2 32.5V34.5C2 34.7 1.7 35 1.5 35Z" fill="#424A52"/>
<path d="M37.5 17C37.2 17 37 16.8 37 16.5V14C37 13.7 36.8 13.5 36.5 13.5H24.5C24.2 13.5 24 13.7 24 14V16.5C24 16.8 23.8 17 23.5 17C23.2 17 23 16.8 23 16.5V14C23 13.2 23.7 12.5 24.5 12.5H36.5C37.3 12.5 38 13.2 38 14V16.5C38 16.7 37.7 17 37.5 17Z" fill="#424A52"/>
<path d="M40.5 17C40.2 17 40 16.8 40 16.5V14C40 12.1 38.4 10.5 36.5 10.5H24.5C22.6 10.5 21 12.1 21 14V16.5C21 16.8 20.8 17 20.5 17C20.2 17 20 16.8 20 16.5V14C20 11.5 22 9.5 24.5 9.5H36.5C39 9.5 41 11.5 41 14V16.5C41 16.7 40.7 17 40.5 17Z" fill="#424A52"/>
<path d="M59.5 38C59.2 38 59 37.8 59 37.5V23.5C59 23.2 59.2 23 59.5 23C59.8 23 60 23.2 60 23.5V37.5C60 37.7 59.7 38 59.5 38Z" fill="#424A52"/>
<path d="M59.5 42C59.2 42 59 41.8 59 41.5V39.5C59 39.2 59.2 39 59.5 39C59.8 39 60 39.2 60 39.5V41.5C60 41.7 59.7 42 59.5 42Z" fill="#424A52"/>
<path d="M52 56H9C7.3 56 6 54.7 6 53V38C6 37.8 6.09999 37.5999 6.29999 37.5999C6.49999 37.4999 6.69999 37.4999 6.79999 37.5999C7.19999 37.8999 7.6 38 8 38H53C53.4 38 53.8 37.8999 54.2 37.5999C54.4 37.4999 54.6 37.4999 54.7 37.5999C54.9 37.6999 55 37.9 55 38V53C55 54.6 53.6 56 52 56ZM7 38.8001V53C7 54.1 7.9 55 9 55H52C53.1 55 54 54.1 54 53V38.8001C53.7 38.9001 53.3 39 53 39H8C7.6 39 7.3 38.9001 7 38.8001Z" fill="#424A52"/>
<path d="M34.5 30H26.5C25.9 30 25.5 29.6 25.5 29V28C25.5 27.4 25.9 27 26.5 27H34.5C35.1 27 35.5 27.4 35.5 28V29C35.5 29.5 35 30 34.5 30Z" fill="white"/>
<path d="M34.5 30.5H26.5C25.7 30.5 25 29.8 25 29V28C25 27.2 25.7 26.5 26.5 26.5H34.5C35.3 26.5 36 27.2 36 28V29C36 29.8 35.3 30.5 34.5 30.5ZM26.5 27.5C26.2 27.5 26 27.7 26 28V29C26 29.3 26.2 29.5 26.5 29.5H34.5C34.8 29.5 35 29.3 35 29V28C35 27.7 34.8 27.5 34.5 27.5H26.5Z" fill="#424A52"/>
<path d="M52.5 27C52.2 27 52 26.8 52 26.5V22.5C52 22.2 51.8 22 51.5 22H47.5C47.2 22 47 21.8 47 21.5C47 21.2 47.2 21 47.5 21H51.5C52.3 21 53 21.7 53 22.5V26.5C53 26.7 52.7 27 52.5 27Z" fill="#424A52"/>
<path d="M20 47L18 49L16 47V34C16 33.4 16.4 33 17 33H19C19.6 33 20 33.4 20 34V47Z" fill="#C9C9C4"/>
<path d="M18 49.5C17.9 49.5 17.7 49.4999 17.6 49.3999L15.6 47.3999C15.5 47.2999 15.5 47.2 15.5 47V34C15.5 33.2 16.2 32.5 17 32.5H19C19.8 32.5 20.5 33.2 20.5 34V47C20.5 47.1 20.4 47.2999 20.4 47.3999L18.4 49.3999C18.2 49.3999 18.1 49.5 18 49.5ZM16.5 46.7L18 48.2L19.5 46.7V33.8999C19.5 33.5999 19.3 33.3999 19 33.3999H17C16.7 33.3999 16.5 33.5999 16.5 33.8999V46.7Z" fill="#424A52"/>
<path d="M21 44.5H15C14.4 44.5 14 44.1 14 43.5V42.5C14 41.9 14.4 41.5 15 41.5H21C21.6 41.5 22 41.9 22 42.5V43.5C22 44 21.5 44.5 21 44.5Z" fill="#C9C9C4"/>
<path d="M21 45H15C14.2 45 13.5 44.3 13.5 43.5V42.5C13.5 41.7 14.2 41 15 41H21C21.8 41 22.5 41.7 22.5 42.5V43.5C22.5 44.3 21.8 45 21 45ZM15 42C14.7 42 14.5 42.2 14.5 42.5V43.5C14.5 43.8 14.7 44 15 44H21C21.3 44 21.5 43.8 21.5 43.5V42.5C21.5 42.2 21.3 42 21 42H15Z" fill="#424A52"/>
<path d="M45 47L43 49L41 47V34C41 33.4 41.4 33 42 33H44C44.6 33 45 33.4 45 34V47Z" fill="#C9C9C4"/>
<path d="M43 49.5C42.9 49.5 42.7 49.4999 42.6 49.3999L40.6 47.3999C40.5 47.2999 40.5 47.2 40.5 47V34C40.5 33.2 41.2 32.5 42 32.5H44C44.8 32.5 45.5 33.2 45.5 34V47C45.5 47.1 45.4 47.2999 45.4 47.3999L43.4 49.3999C43.2 49.3999 43.1 49.5 43 49.5ZM41.5 46.7L43 48.2L44.5 46.7V33.8999C44.5 33.5999 44.3 33.3999 44 33.3999H42C41.7 33.3999 41.5 33.5999 41.5 33.8999V46.7Z" fill="#424A52"/>
<path d="M46 44.5H40C39.4 44.5 39 44.1 39 43.5V42.5C39 41.9 39.4 41.5 40 41.5H46C46.6 41.5 47 41.9 47 42.5V43.5C47 44 46.5 44.5 46 44.5Z" fill="#C9C9C4"/>
<path d="M46 45H40C39.2 45 38.5 44.3 38.5 43.5V42.5C38.5 41.7 39.2 41 40 41H46C46.8 41 47.5 41.7 47.5 42.5V43.5C47.5 44.3 46.8 45 46 45ZM40 42C39.7 42 39.5 42.2 39.5 42.5V43.5C39.5 43.8 39.7 44 40 44H46C46.3 44 46.5 43.8 46.5 43.5V42.5C46.5 42.2 46.3 42 46 42H40Z" fill="#424A52"/>
</svg>
