<svg width="60" height="60" viewBox="0 0 60 60" fill="none" xmlns="http://www.w3.org/2000/svg">
<path d="M33.0969 32.8515H26.3872V41.2386H33.0969V32.8515Z" fill="#E60D2E"/>
<path d="M36.4514 43.4193H23.032C22.7804 43.4193 22.6127 43.2516 22.6127 43V42.1613C22.6127 40.4 21.8578 38.7225 20.5159 37.7161C16.4901 34.529 14.4772 29.5806 15.1481 24.4644C15.9869 17.8386 21.3546 12.4709 28.0643 11.7161C32.3417 11.2129 36.3675 12.5548 39.5546 15.3226C42.6578 18.0903 44.4191 22.1161 44.4191 26.2258C44.4191 30.671 42.4062 34.8645 38.9675 37.6322C37.6256 38.7226 36.8707 40.3161 36.8707 42.1613V43C36.8707 43.1677 36.6191 43.4193 36.4514 43.4193ZM23.4514 42.5806H36.032V42.1613C36.032 40.1484 36.8707 38.2193 38.4643 37.0451C41.7352 34.3612 43.5804 30.5032 43.5804 26.3096C43.5804 22.3677 41.903 18.5935 38.9675 15.9935C36.032 13.3096 32.174 12.1354 28.1481 12.5548C21.8578 13.2258 16.7417 18.3419 15.9869 24.5484C15.3998 29.4129 17.3288 34.0257 21.0191 37.0451C22.5288 38.2193 23.3675 40.1484 23.3675 42.1613V42.5806H23.4514Z" fill="#424A52"/>
<path d="M41.484 26.6452C41.2324 26.6452 41.0647 26.4774 41.0647 26.2258C41.0647 20.0194 35.9486 14.9032 29.7421 14.9032C29.4905 14.9032 29.3228 14.7355 29.3228 14.4839C29.3228 14.2323 29.4905 14.0645 29.7421 14.0645C36.4518 14.0645 41.9034 19.5161 41.9034 26.2258C41.9034 26.3935 41.6518 26.6452 41.484 26.6452Z" fill="#424A52"/>
<path d="M30.1613 55.4967H29.3225C25.8838 55.4967 23.0322 52.645 23.0322 49.2063V42.916H36.4516V49.2063C36.4516 52.7289 33.6 55.4967 30.1613 55.4967Z" fill="#C9C9C4"/>
<path d="M30.1612 56H29.3225C25.6321 56 22.6128 52.9806 22.6128 49.2903V43C22.6128 42.7484 22.7805 42.5806 23.0321 42.5806H36.4515C36.7031 42.5806 36.8709 42.7484 36.8709 43V49.2903C36.8709 52.9806 33.8515 56 30.1612 56ZM23.4515 43.4193V49.2903C23.4515 52.5613 26.0515 55.1613 29.3225 55.1613H30.1612C33.4321 55.1613 36.0321 52.5613 36.0321 49.2903V43.4193H23.4515Z" fill="#424A52"/>
<path d="M36.4515 46.7742H23.0321C22.7805 46.7742 22.6128 46.6065 22.6128 46.3548C22.6128 46.1032 22.7805 45.9355 23.0321 45.9355H36.4515C36.7031 45.9355 36.8709 46.1032 36.8709 46.3548C36.8709 46.6065 36.6192 46.7742 36.4515 46.7742Z" fill="#424A52"/>
<path d="M36.4515 50.1291H23.0321C22.7805 50.1291 22.6128 49.9613 22.6128 49.7097C22.6128 49.4581 22.7805 49.2903 23.0321 49.2903H36.4515C36.7031 49.2903 36.8709 49.4581 36.8709 49.7097C36.8709 49.9613 36.6192 50.1291 36.4515 50.1291Z" fill="#424A52"/>
<path d="M29.8261 9.87097C29.5745 9.87097 29.4067 9.70323 29.4067 9.45161V4.41935C29.4067 4.16774 29.5745 4 29.8261 4C30.0777 4 30.2454 4.16774 30.2454 4.41935V9.45161C30.2454 9.61936 30.0777 9.87097 29.8261 9.87097Z" fill="#424A52"/>
<path d="M12.9677 26.6452H7.93547C7.68386 26.6452 7.51611 26.4774 7.51611 26.2258C7.51611 25.9742 7.68386 25.8065 7.93547 25.8065H12.9677C13.2193 25.8065 13.3871 25.9742 13.3871 26.2258C13.3871 26.4774 13.1355 26.6452 12.9677 26.6452Z" fill="#424A52"/>
<path d="M51.5483 26.6452H46.516C46.2644 26.6452 46.0967 26.4774 46.0967 26.2258C46.0967 25.9742 46.2644 25.8065 46.516 25.8065H51.5483C51.7999 25.8065 51.9676 25.9742 51.9676 26.2258C51.9676 26.4774 51.716 26.6452 51.5483 26.6452Z" fill="#424A52"/>
<path d="M14.3094 41.9935C14.2256 41.9935 14.0578 41.9935 13.974 41.9096C13.8062 41.7419 13.8062 41.4903 13.974 41.3226L17.4965 37.7999C17.6643 37.6322 17.9159 37.6322 18.0836 37.7999C18.2514 37.9677 18.2514 38.2194 18.0836 38.3871L14.561 41.9096C14.4772 41.9935 14.3933 41.9935 14.3094 41.9935Z" fill="#424A52"/>
<path d="M41.5677 14.7354C41.4839 14.7354 41.3161 14.7355 41.2323 14.6516C41.0645 14.4838 41.0645 14.2323 41.2323 14.0645L44.7548 10.5419C44.9226 10.3741 45.1742 10.3741 45.3419 10.5419C45.5097 10.7096 45.5097 10.9613 45.3419 11.129L41.8193 14.6516C41.8193 14.7355 41.6516 14.7354 41.5677 14.7354Z" fill="#424A52"/>
<path d="M45.0903 41.9935C45.0065 41.9935 44.8387 41.9935 44.7548 41.9096L41.2323 38.3871C41.0645 38.2194 41.0645 37.9677 41.2323 37.7999C41.4 37.6322 41.6516 37.6322 41.8193 37.7999L45.3419 41.3226C45.5097 41.4903 45.5097 41.7419 45.3419 41.9096C45.3419 41.9935 45.2581 41.9935 45.0903 41.9935Z" fill="#424A52"/>
<path d="M17.832 14.7354C17.7481 14.7354 17.5804 14.7355 17.4965 14.6516L13.974 11.129C13.8062 10.9613 13.8062 10.7096 13.974 10.5419C14.1417 10.3741 14.3933 10.3741 14.561 10.5419L18.0836 14.0645C18.2514 14.2323 18.2514 14.4838 18.0836 14.6516C18.0836 14.7355 17.9159 14.7354 17.832 14.7354Z" fill="#424A52"/>
<path d="M54.0647 26.6452H53.226C52.9744 26.6452 52.8066 26.4774 52.8066 26.2258C52.8066 25.9742 52.9744 25.8065 53.226 25.8065H54.0647C54.3163 25.8065 54.4841 25.9742 54.4841 26.2258C54.4841 26.4774 54.2324 26.6452 54.0647 26.6452Z" fill="#424A52"/>
<path d="M6.25806 26.6452H5.41935C5.16774 26.6452 5 26.4774 5 26.2258C5 25.9742 5.16774 25.8065 5.41935 25.8065H6.25806C6.50968 25.8065 6.67742 25.9742 6.67742 26.2258C6.67742 26.4774 6.42581 26.6452 6.25806 26.6452Z" fill="#424A52"/>
<path d="M33.0968 41.742C32.8452 41.742 32.6775 41.5742 32.6775 41.3226V33.0194L29.742 27.1484L26.8065 33.0194V41.3226C26.8065 41.5742 26.6387 41.742 26.3871 41.742C26.1355 41.742 25.9678 41.5742 25.9678 41.3226V32.9355C25.9678 32.8516 25.9678 32.7677 26.0516 32.7677L29.4065 26.058C29.5742 25.8064 29.9936 25.8064 30.1613 26.058L33.5162 32.7677C33.5162 32.8516 33.6 32.8516 33.6 32.9355V41.3226C33.5162 41.4904 33.2645 41.742 33.0968 41.742Z" fill="#424A52"/>
<path d="M31.4192 30H28.0644C27.8128 30 27.645 29.8323 27.645 29.5807C27.645 29.3291 27.8128 29.1613 28.0644 29.1613H31.4192C31.6708 29.1613 31.8386 29.3291 31.8386 29.5807C31.8386 29.8323 31.587 30 31.4192 30Z" fill="#424A52"/>
<path d="M33.0968 33.3548H26.3871C26.1355 33.3548 25.9678 33.1871 25.9678 32.9355C25.9678 32.6839 26.1355 32.5161 26.3871 32.5161H33.0968C33.3484 32.5161 33.5162 32.6839 33.5162 32.9355C33.5162 33.1871 33.2645 33.3548 33.0968 33.3548Z" fill="#424A52"/>
<path d="M33.0968 35.871H26.3871C26.1355 35.871 25.9678 35.7033 25.9678 35.4516C25.9678 35.2 26.1355 35.0323 26.3871 35.0323H33.0968C33.3484 35.0323 33.5162 35.2 33.5162 35.4516C33.5162 35.7033 33.2645 35.871 33.0968 35.871Z" fill="#424A52"/>
<path d="M33.3482 30.0838C33.1805 30.0838 32.9289 29.9161 32.9289 29.7483L32.6773 28.0709C32.6773 27.9032 32.6773 27.8193 32.7611 27.7354L35.5289 24.8838L31.6708 24.2967C31.5031 24.2967 31.4192 24.2128 31.3353 24.0451L29.6579 20.4387L27.9805 24.0451C27.8966 24.2128 27.8128 24.2967 27.645 24.2967L23.7869 24.8838L26.5547 27.7354C26.6386 27.8193 26.7224 27.987 26.6386 28.0709L26.3869 29.7483C26.3869 30 26.1353 30.1677 25.8837 30.0838C25.6321 30.0838 25.4644 29.8322 25.5482 29.5806L25.7999 28.1548L22.6128 24.8838C22.5289 24.7999 22.445 24.6322 22.5289 24.4644C22.6128 24.2967 22.6966 24.2129 22.8644 24.2129L27.3095 23.5419L29.3224 19.3483C29.4902 19.0967 29.9095 19.0967 30.0773 19.3483L32.0902 23.5419L36.5353 24.2129C36.7031 24.2129 36.7869 24.3806 36.8708 24.4644C36.9547 24.5483 36.8708 24.7999 36.7869 24.8838L33.5998 28.1548L33.8515 29.5806C33.7676 29.8322 33.5999 30.0838 33.3482 30.0838Z" fill="#424A52"/>
</svg>
