<svg width="60" height="60" viewBox="0 0 60 60" fill="none" xmlns="http://www.w3.org/2000/svg">
<path d="M15.4891 35.4894C13.6168 35.4894 12.0849 33.9575 12.0849 32.0851C12.0849 31.6596 12.2551 31.2341 12.5104 30.9788C12.2551 30.5532 12.0849 30.0426 12.0849 29.5319V21.5319V21.4468L4.42529 29.1064L15.4891 38.7234V35.4894Z" fill="#C9C9C4"/>
<path d="M46.1277 33.4468C45.8724 33.4468 45.7021 33.2766 45.7021 33.0213V9.19146C45.7021 8.93614 45.8724 8.76593 46.1277 8.76593C46.383 8.76593 46.5532 8.93614 46.5532 9.19146V33.0213C46.5532 33.1915 46.2979 33.4468 46.1277 33.4468Z" fill="#424A52"/>
<path d="M46.1274 16.766V9.95752L55.4891 13.3618L46.1274 16.766Z" fill="#E60D2E"/>
<path d="M46.1277 17.2766C46.0426 17.2766 45.9575 17.2766 45.8724 17.1915C45.7873 17.1064 45.7021 17.0213 45.7021 16.851V10.0425C45.7021 9.87232 45.7873 9.78725 45.8724 9.70214C45.9575 9.61704 46.1277 9.617 46.2979 9.617L55.6596 13.0213C55.8298 13.1064 55.9149 13.2766 55.9149 13.4468C55.9149 13.617 55.8298 13.7872 55.6596 13.8723L46.2979 17.2766C46.2128 17.1915 46.1277 17.2766 46.1277 17.2766ZM46.5532 10.6383V16.2553L54.2128 13.4468L46.5532 10.6383Z" fill="#424A52"/>
<path d="M51.6597 56H35.4895C35.2342 56 35.064 55.8298 35.064 55.5745C35.064 55.3191 35.2342 55.1489 35.4895 55.1489H51.6597C51.915 55.1489 52.0852 55.3191 52.0852 55.5745C52.0852 55.8298 51.8299 56 51.6597 56Z" fill="#424A52"/>
<path d="M55.0637 56H53.3616C53.1062 56 52.936 55.8298 52.936 55.5745C52.936 55.3191 53.1062 55.1489 53.3616 55.1489H55.0637C55.319 55.1489 55.4892 55.3191 55.4892 55.5745C55.4892 55.8298 55.2339 56 55.0637 56Z" fill="#424A52"/>
<path d="M4.42555 56C4.25533 56 4.08515 55.9149 4.08515 55.7447C4.00005 55.5745 4.08511 55.3191 4.25532 55.1489L18.7234 47.9149C18.8085 47.8298 18.9788 47.8298 19.0639 47.9149L23.9149 49.9575L30.5532 43.3192C30.6383 43.2341 30.8085 43.1489 30.9788 43.234L38.383 45.2766L45.8724 34.4681C45.9575 34.383 46.0426 34.2979 46.2128 34.2979H55.149C55.4043 34.2979 55.5745 34.4681 55.5745 34.7234C55.5745 34.9787 55.4043 35.1489 55.149 35.1489H46.4681L38.8936 46.0425C38.8085 46.2127 38.6383 46.2979 38.4681 46.2128L31.0638 44.1702L24.4256 50.8085C24.3405 50.8936 24.0851 50.9787 24 50.8936L19.0639 48.8511L4.76599 56C4.51067 55.9149 4.42555 56 4.42555 56Z" fill="#424A52"/>
<path d="M22.2126 15.5745C19.1488 15.5745 16.6807 13.1064 16.6807 10.0425C16.6807 6.97871 19.1488 4.51062 22.2126 4.51062C25.2764 4.51062 27.7445 6.97871 27.7445 10.0425C27.7445 13.1064 25.2764 15.5745 22.2126 15.5745ZM22.2126 5.36168C19.6594 5.36168 17.5317 7.48934 17.5317 10.0425C17.5317 12.5957 19.6594 14.7234 22.2126 14.7234C24.7658 14.7234 26.8934 12.5957 26.8934 10.0425C26.8934 7.48934 24.8509 5.36168 22.2126 5.36168Z" fill="#424A52"/>
<path d="M25.7873 7.06382L26.1277 6.72343C25.1915 5.61704 23.7447 4.85107 22.2128 4.85107C19.4043 4.85107 17.1064 7.14895 17.1064 9.95746H17.6171C20.5958 9.95746 23.4894 8.93616 25.7873 7.06382Z" fill="#C9C9C4"/>
<path d="M17.6168 10.4681H17.1062C16.8509 10.4681 16.6807 10.2979 16.6807 10.0425C16.6807 6.97871 19.1488 4.51062 22.2126 4.51062C23.8296 4.51062 25.4466 5.27657 26.4679 6.46806C26.553 6.55316 26.553 6.63829 26.553 6.8085C26.553 6.97872 26.4679 7.06381 26.3828 7.06381L26.0424 7.40426C23.7445 9.36171 20.6806 10.4681 17.6168 10.4681ZM17.6168 9.617C20.5104 9.617 23.3189 8.59576 25.5317 6.72342C24.6806 5.87235 23.4892 5.36168 22.2126 5.36168C19.8296 5.36168 17.787 7.23403 17.6168 9.617Z" fill="#424A52"/>
<path d="M20.5959 47.0638H17.1916C16.9363 47.0638 16.7661 46.8936 16.7661 46.6383V30.4681C16.7661 30.2128 16.9363 30.0425 17.1916 30.0425H30.3831C31.8299 30.0425 32.9363 31.1489 32.9363 32.5957V41.9574C32.9363 42.2128 32.7661 42.383 32.5108 42.383H29.1065C28.9363 42.383 28.7661 42.2128 28.681 42.0426L27.1491 35.4894C27.064 35.3192 26.8938 35.1489 26.7236 35.1489H23.064C22.8938 35.1489 22.6385 35.3192 22.6385 35.4894L21.0214 46.6383C20.9363 46.8936 20.7661 47.0638 20.5959 47.0638ZM17.6172 46.2128H20.2555L21.7874 35.4042C21.8725 34.8085 22.3832 34.2979 23.064 34.2979H26.7236C27.3193 34.2979 27.83 34.7234 28.0002 35.3191L29.447 41.5319H32.0853V32.5957C32.0853 31.6596 31.3193 30.8936 30.3831 30.8936H17.6172V46.2128Z" fill="#424A52"/>
<path d="M19.6594 16.3404C19.4041 16.3404 19.2339 16.1702 19.2339 15.9148V14.3829C19.2339 14.1276 19.4041 13.9574 19.6594 13.9574C19.9147 13.9574 20.085 14.1276 20.085 14.3829V15.9148C20.085 16.1702 19.9147 16.3404 19.6594 16.3404Z" fill="#424A52"/>
<path d="M24.7659 16.3404C24.5105 16.3404 24.3403 16.1702 24.3403 15.9148V14.3829C24.3403 14.1276 24.5105 13.9574 24.7659 13.9574C25.0212 13.9574 25.1914 14.1276 25.1914 14.3829V15.9148C25.2765 16.1702 25.0212 16.3404 24.7659 16.3404C24.851 16.3404 24.851 16.3404 24.7659 16.3404Z" fill="#424A52"/>
<path d="M38.2125 10.1277C38.1274 10.1277 38.0423 10.1276 38.0423 10.0425C37.8721 9.95741 37.787 9.70208 37.8721 9.44676C38.2125 8.85102 37.9572 8.08506 37.2764 7.74463C36.6807 7.40421 35.9147 7.65954 35.5743 8.34039C35.4892 8.5106 35.2338 8.59572 34.9785 8.51061C34.8083 8.42551 34.7232 8.17018 34.8083 7.91486C35.3189 6.89358 36.5955 6.46807 37.7019 6.97871C38.7232 7.48935 39.1487 8.76591 38.6381 9.87229C38.4679 9.9574 38.2977 10.1277 38.2125 10.1277Z" fill="#424A52"/>
<path d="M27.4044 30.8936H14.6384C13.9576 30.8936 13.3618 30.2979 13.3618 29.617V21.617C13.3618 19.8298 14.3831 18.2128 15.915 17.4468L19.4895 15.6596C19.6597 15.5745 19.915 15.5745 20.0001 15.7447L22.2129 18.383L24.4257 15.7447C24.5959 15.5745 24.7661 15.5745 24.9363 15.6596L27.4044 16.9362H29.1916C29.8725 16.9362 30.3831 16.5957 30.7235 16L33.9576 9.617C34.0427 9.44679 34.298 9.36167 34.5533 9.44678L37.6171 10.9787C37.7023 11.0638 37.7873 11.1489 37.8725 11.234C37.8725 11.3191 37.8725 11.4893 37.8725 11.5744L34.298 18.6383C33.5321 20.2553 31.915 21.1915 30.1278 21.1915H27.915V30.5532C27.8299 30.6383 27.5746 30.8936 27.4044 30.8936ZM19.5746 16.5107L16.2555 18.1276C14.9789 18.8085 14.1278 20.0851 14.1278 21.5319V29.5319C14.1278 29.7872 14.298 29.9575 14.5533 29.9575H26.8938V20.5957C26.8938 20.3404 27.064 20.1702 27.3193 20.1702H29.9576C31.4044 20.1702 32.7661 19.3192 33.3618 18.0426L36.681 11.3191L34.3831 10.2128L31.4044 16.2553C30.9789 17.1064 30.1278 17.7021 29.1065 17.7021H27.2342C27.149 17.7021 27.064 17.7021 27.064 17.617L24.7661 16.5107L22.4682 19.234C22.298 19.4042 21.9576 19.4042 21.7874 19.234L19.5746 16.5107Z" fill="#424A52"/>
<path d="M23.5747 25.2765L22.2981 26.9786L21.0215 25.2765L21.447 17.6169H23.1491L23.5747 25.2765Z" fill="#E60D2E"/>
<path d="M22.2978 27.4042C22.1276 27.4042 22.0425 27.3191 21.9574 27.234L20.6808 25.5319C20.5957 25.4468 20.5957 25.3617 20.5957 25.2766L21.0212 17.617C21.0212 17.3617 21.1914 17.1915 21.4468 17.1915H23.1489C23.4042 17.1915 23.5744 17.3617 23.5744 17.617L24 25.2766C24 25.3617 24 25.4468 23.9149 25.5319L22.6383 27.234C22.5532 27.3191 22.3829 27.4042 22.2978 27.4042ZM21.4468 25.1914L22.2978 26.2979L23.1489 25.1914L22.7234 18.1276H21.7872L21.4468 25.1914Z" fill="#424A52"/>
<path d="M17.1916 30.8936C16.9363 30.8936 16.7661 30.7234 16.7661 30.4681V21.9575C16.7661 21.7021 16.9363 21.5319 17.1916 21.5319C17.447 21.5319 17.6172 21.7021 17.6172 21.9575V30.4681C17.6172 30.6383 17.3619 30.8936 17.1916 30.8936Z" fill="#424A52"/>
<path d="M15.4895 34.2979C14.298 34.2979 13.3618 33.3617 13.3618 32.1702C13.3618 31.9149 13.532 31.7447 13.7873 31.7447C14.0427 31.7447 14.2129 31.9149 14.2129 32.1702C14.2129 32.8511 14.8086 33.4468 15.4895 33.4468C16.1703 33.4468 16.7661 32.8511 16.7661 32.1702C16.7661 31.9149 16.9363 31.7447 17.1916 31.7447C17.4469 31.7447 17.6171 31.9149 17.6171 32.1702C17.6171 33.2766 16.681 34.2979 15.4895 34.2979Z" fill="#424A52"/>
<path d="M15.4894 39.1489C15.4043 39.1489 15.3192 39.1489 15.2341 39.0638L4.17022 29.4467C4.08512 29.3616 4 29.2765 4 29.1063C4 29.0212 4.00003 28.851 4.08514 28.7659L11.7447 21.1063C11.8298 21.0212 12.0851 20.9361 12.2553 21.0212C12.4255 21.1063 12.5106 21.2765 12.5106 21.4468C12.5106 21.617 12.4255 21.7872 12.2553 21.8723L5.02129 29.1063L15.7447 38.3829C15.9149 38.5531 15.9149 38.8084 15.8298 38.9787C15.6596 39.1489 15.5745 39.1489 15.4894 39.1489Z" fill="#424A52"/>
<path d="M13.5319 6.55321H10.1277C9.87236 6.55321 9.70215 6.383 9.70215 6.12768C9.70215 5.87236 9.87236 5.70215 10.1277 5.70215H13.5319C13.7873 5.70215 13.9575 5.87236 13.9575 6.12768C13.9575 6.383 13.7873 6.55321 13.5319 6.55321Z" fill="#424A52"/>
<path d="M11.8298 8.25532C11.5745 8.25532 11.4043 8.08511 11.4043 7.82979V4.42553C11.4043 4.17021 11.5745 4 11.8298 4C12.0851 4 12.2554 4.17021 12.2554 4.42553V7.82979C12.2554 8.08511 12.0851 8.25532 11.8298 8.25532Z" fill="#424A52"/>
<path d="M9.27657 11.2341H5.87231C5.61699 11.2341 5.44678 11.0638 5.44678 10.8085C5.44678 10.5532 5.61699 10.383 5.87231 10.383H9.27657C9.53189 10.383 9.7021 10.5532 9.7021 10.8085C9.7021 11.0638 9.53189 11.2341 9.27657 11.2341Z" fill="#424A52"/>
<path d="M7.57446 12.9362C7.31914 12.9362 7.14893 12.766 7.14893 12.5106V9.10638C7.14893 8.85106 7.31914 8.68085 7.57446 8.68085C7.82978 8.68085 7.99999 8.85106 7.99999 9.10638V12.5106C7.99999 12.766 7.82978 12.9362 7.57446 12.9362Z" fill="#424A52"/>
</svg>
